<svg xmlns="http://www.w3.org/2000/svg" version="1.1" xmlns:xlink="http://www.w3.org/1999/xlink" xmlns:svgjs="http://svgjs.dev/svgjs" width="1000" height="1000" viewBox="0 0 1000 1000"><g transform="matrix(1,0,0,1,0,0)"><svg viewBox="0 0 280 280" data-background-color="#ffffff" preserveAspectRatio="xMidYMid meet" height="1000" width="1000" xmlns="http://www.w3.org/2000/svg" xmlns:xlink="http://www.w3.org/1999/xlink"><g id="tight-bounds" transform="matrix(1,0,0,1,0,0)"><svg viewBox="0 0 280 280" height="280" width="280"><g><svg viewBox="0 0 280 280" height="280" width="280"><g transform="matrix(1,0,0,1,60.80404050710668,97.21489524618443)"><svg viewBox="0 0 158.39191898578665 85.57020950763115" height="85.57020950763115" width="158.39191898578665"><g><svg viewBox="0 0 159.18387858071557 85.9980605551693" height="85.57020950763115" width="158.39191898578665"><g><rect width="159.18387858071557" height="1.617890743219173" x="0" y="48.27686983077075" fill="#332885" opacity="1" stroke-width="0" stroke="transparent" fill-opacity="1" class="rect-o-0" data-fill-palette-color="primary" rx="1%" id="o-0" data-palette-color="#332885"></rect></g><g transform="matrix(1,0,0,1,0.395979797464463,54.130076655715506)"><svg viewBox="0 0 158.39191898578665 31.867983899453804" height="31.867983899453804" width="158.39191898578665"><g id="textblocktransform"><svg viewBox="0 0 158.39191898578665 31.867983899453804" height="31.867983899453804" width="158.39191898578665" id="textblock"><g><svg viewBox="0 0 158.39191898578665 17.940477141791558" height="17.940477141791558" width="158.39191898578665"><g transform="matrix(1,0,0,1,0,0)"><svg width="158.39191898578665" viewBox="1.75 -32.099998474121094 288.6700134277344 32.69999694824219" height="17.940477141791558" data-palette-color="#332885"><g class="undefined-text-0" data-fill-palette-color="primary" id="text-0"><path d="M24.15-1.05L24.15-1.05Q24.9-1.05 25.38-1.68 25.85-2.3 25.85-3.18 25.85-4.05 25.7-4.8L25.7-4.8 26.65-4.95Q26.85-4.2 26.85-3.3L26.85-3.3Q26.85-1.5 25.78-0.45 24.7 0.6 23 0.6L23 0.6Q18.75 0.6 18.75-4.55 18.75-9.7 17.45-12.13 16.15-14.55 12.15-14.55L12.15-14.55 8.9-14.55 8.9-1.6Q8.9-0.9 9.6-0.9L9.6-0.9 12.95-0.9 12.95 0 1.75 0 1.75-0.9 4.1-0.9Q4.8-0.9 4.8-1.6L4.8-1.6 4.8-30Q4.8-30.6 4.1-30.6L4.1-30.6 1.75-30.6 1.75-31.5 14.2-31.5Q18.4-31.5 21.35-29.2 24.3-26.9 24.3-23.05L24.3-23.05Q24.3-19.95 22.38-17.82 20.45-15.7 17.3-14.9L17.3-14.9Q20.85-13.7 21.8-10.6L21.8-10.6Q22.55-8.05 22.55-4.55 22.55-1.05 24.15-1.05ZM13.95-30.1L13.95-30.1 8.9-30.1 8.9-16 13.95-16Q16.95-16 18.63-18.1 20.3-20.2 20.3-23.05 20.3-25.9 18.63-28 16.95-30.1 13.95-30.1ZM31.3-1.6L31.3-1.6 31.3-30Q31.3-30.6 30.6-30.6L30.6-30.6 28.25-30.6 28.25-31.5 38.45-31.5 38.45-30.6 36.1-30.6Q35.4-30.6 35.4-30L35.4-30 35.4-1.6Q35.4-0.9 36.1-0.9L36.1-0.9 38.45-0.9 38.45 0 28.25 0 28.25-0.9 30.6-0.9Q31.3-0.9 31.3-1.6ZM45-1.6L45-1.6 45-30Q45-30.6 44.3-30.6L44.3-30.6 41.95-30.6 41.95-31.5 52.15-31.5 52.15-30.6 49.8-30.6Q49.09-30.6 49.09-30L49.09-30 49.09-1.6Q49.09-0.9 49.8-0.9L49.8-0.9 52.15-0.9 52.15 0 41.95 0 41.95-0.9 44.3-0.9Q45-0.9 45-1.6ZM60.8-8.75L60.8-8.75 61.95-4.15Q62.7-1.05 64.34-1.05L64.34-1.05Q65.19-1.05 65.67-1.68 66.15-2.3 66.15-3.18 66.15-4.05 66-4.8L66-4.8 66.94-4.95Q67.15-4.2 67.15-3.3L67.15-3.3Q67.15-1.5 66.07-0.45 65 0.6 63.3 0.6L63.3 0.6Q59.09 0.6 57.8-4.75L57.8-4.75 56.64-9.35Q55.8-12.6 54.3-13.88 52.8-15.15 50.05-15.15L50.05-15.15 50.05-16.25 61.84-30.6 59.34-30.6 59.34-31.5 66.15-31.5 66.15-30.6 64.8-30.6Q64-30.6 63.4-29.9L63.4-29.9 52.2-16.35Q56.05-16.3 58-14.25 59.95-12.2 60.8-8.75ZM79.54 0.6L79.54 0.6Q76.24 0.6 72.94-1.2L72.94-1.2Q71.84-1.75 71.44-1.75L71.44-1.75Q70.69-1.75 70.64-0.7L70.64-0.7 70.59 0 69.64 0 69.64-8.35 70.54-8.35Q70.99-4.5 73.42-2.68 75.84-0.85 79.17-0.85 82.49-0.85 84.22-2.65 85.94-4.45 85.94-6.9L85.94-6.9Q85.94-10.8 81.44-12.8L81.44-12.8 75.49-15.45Q72.79-16.65 71.44-18.73 70.09-20.8 70.09-23.2L70.09-23.2Q70.09-26.85 72.54-29.48 74.99-32.1 79.59-32.1L79.59-32.1Q82.29-32.1 85.14-30.3L85.14-30.3Q86.09-29.75 86.44-29.75L86.44-29.75Q87.09-29.75 87.14-30.8L87.14-30.8 87.19-31.8 88.14-31.8 88.14-23.15 87.24-23.15Q86.84-27 84.77-28.83 82.69-30.65 79.72-30.65 76.74-30.65 75.12-29.03 73.49-27.4 73.49-25.33 73.49-23.25 74.62-21.6 75.74-19.95 77.94-19L77.94-19 83.94-16.35Q86.94-15 88.47-12.83 89.99-10.65 89.99-8.15L89.99-8.15Q89.99-4.6 87.14-2 84.29 0.6 79.54 0.6ZM96.79-1.6L96.79-1.6 96.79-30Q96.79-30.6 96.09-30.6L96.09-30.6 93.74-30.6 93.74-31.5 103.94-31.5 103.94-30.6 101.59-30.6Q100.89-30.6 100.89-30L100.89-30 100.89-1.6Q100.89-0.9 101.59-0.9L101.59-0.9 103.94-0.9 103.94 0 93.74 0 93.74-0.9 96.09-0.9Q96.79-0.9 96.79-1.6ZM112.59-8.75L112.59-8.75 113.74-4.15Q114.49-1.05 116.14-1.05L116.14-1.05Q116.99-1.05 117.47-1.68 117.94-2.3 117.94-3.18 117.94-4.05 117.79-4.8L117.79-4.8 118.74-4.95Q118.94-4.2 118.94-3.3L118.94-3.3Q118.94-1.5 117.87-0.45 116.79 0.6 115.09 0.6L115.09 0.6Q110.89 0.6 109.59-4.75L109.59-4.75 108.44-9.35Q107.59-12.6 106.09-13.88 104.59-15.15 101.84-15.15L101.84-15.15 101.84-16.25 113.64-30.6 111.14-30.6 111.14-31.5 117.94-31.5 117.94-30.6 116.59-30.6Q115.79-30.6 115.19-29.9L115.19-29.9 103.99-16.35Q107.84-16.3 109.79-14.25 111.74-12.2 112.59-8.75ZM147.74-0.9L147.74 0 137.49 0 137.49-0.9 140.74-0.9 137.24-10.55 126.24-10.55 122.74-0.9 125.99-0.9 125.99 0 118.44 0 118.44-0.9 120.29-0.9Q120.99-0.9 121.24-1.6L121.24-1.6 132.24-31.5 133.94-31.5 144.94-1.6Q145.19-0.9 145.89-0.9L145.89-0.9 147.74-0.9ZM136.74-11.95L131.79-25.6 126.79-11.95 136.74-11.95ZM174.14 0L172.54 0 153.74-27.9 153.74-1.6Q153.74-0.9 154.44-0.9L154.44-0.9 156.79-0.9 156.79 0 148.99 0 148.99-0.9 151.34-0.9Q152.04-0.9 152.04-1.6L152.04-1.6 152.04-30Q152.04-30.6 151.34-30.6L151.34-30.6 148.99-30.6 148.99-31.5 156.34-31.5 172.44-7.7 172.44-29.9Q172.44-30.6 171.74-30.6L171.74-30.6 169.39-30.6 169.39-31.5 177.19-31.5 177.19-30.6 174.84-30.6Q174.14-30.6 174.14-30L174.14-30 174.14 0ZM191.08 0.6L191.08 0.6Q187.78 0.6 184.48-1.2L184.48-1.2Q183.38-1.75 182.98-1.75L182.98-1.75Q182.23-1.75 182.18-0.7L182.18-0.7 182.13 0 181.18 0 181.18-8.35 182.08-8.35Q182.53-4.5 184.96-2.68 187.38-0.85 190.71-0.85 194.03-0.85 195.76-2.65 197.48-4.45 197.48-6.9L197.48-6.9Q197.48-10.8 192.98-12.8L192.98-12.8 187.03-15.45Q184.33-16.65 182.98-18.73 181.63-20.8 181.63-23.2L181.63-23.2Q181.63-26.85 184.08-29.48 186.53-32.1 191.13-32.1L191.13-32.1Q193.83-32.1 196.68-30.3L196.68-30.3Q197.63-29.75 197.98-29.75L197.98-29.75Q198.63-29.75 198.68-30.8L198.68-30.8 198.73-31.8 199.68-31.8 199.68-23.15 198.78-23.15Q198.38-27 196.31-28.83 194.23-30.65 191.26-30.65 188.28-30.65 186.66-29.03 185.03-27.4 185.03-25.33 185.03-23.25 186.16-21.6 187.28-19.95 189.48-19L189.48-19 195.48-16.35Q198.48-15 200.01-12.83 201.53-10.65 201.53-8.15L201.53-8.15Q201.53-4.6 198.68-2 195.83 0.6 191.08 0.6ZM220.58 0L205.28 0 205.28-0.9 207.63-0.9Q208.33-0.9 208.33-1.6L208.33-1.6 208.33-30Q208.33-30.6 207.63-30.6L207.63-30.6 205.28-30.6 205.28-31.5 215.48-31.5 215.48-30.6 213.13-30.6Q212.43-30.6 212.43-30L212.43-30 212.43-1.4 222.38-1.4Q223.68-1.4 223.78-2.5L223.78-2.5 224.53-8.35 225.68-8.35 225.68-6Q225.68-1.6 226.13 0.45L226.13 0.45Q224.53 0 220.58 0L220.58 0ZM230.93-1.6L230.93-1.6 230.93-30Q230.93-30.6 230.23-30.6L230.23-30.6 227.88-30.6 227.88-31.5 238.08-31.5 238.08-30.6 235.73-30.6Q235.03-30.6 235.03-30L235.03-30 235.03-1.6Q235.03-0.9 235.73-0.9L235.73-0.9 238.08-0.9 238.08 0 227.88 0 227.88-0.9 230.23-0.9Q230.93-0.9 230.93-1.6ZM258.13 0L241.57 0 241.57-0.9 243.92-0.9Q244.63-0.9 244.63-1.6L244.63-1.6 244.63-30Q244.63-30.6 243.92-30.6L243.92-30.6 241.57-30.6 241.57-31.5 257.43-31.5Q261.38-31.5 262.97-31.95L262.97-31.95Q262.52-29.9 262.52-26.25L262.52-26.25 262.52-23.9 261.38-23.9 260.63-29Q260.52-30.1 259.22-30.1L259.22-30.1 248.72-30.1 248.72-16.45 258.77-16.45Q259.38-16.45 259.47-17.15L259.47-17.15 259.72-20.25 260.63-20.25 260.63-11.25 259.72-11.25 259.47-14.35Q259.38-15.05 258.77-15.05L258.77-15.05 248.72-15.05 248.72-1.4 259.93-1.4Q261.22-1.4 261.32-2.5L261.32-2.5 262.07-8.35 263.22-8.35 263.22-6Q263.22-1.6 263.68 0.45L263.68 0.45Q262.07 0 258.13 0L258.13 0ZM286.67-30.1L280.22-30.1 280.22-1.5Q280.22-0.9 280.92-0.9L280.92-0.9 285.27-0.9 285.27 0 271.07 0 271.07-0.9 275.42-0.9Q276.12-0.9 276.12-1.5L276.12-1.5 276.12-30.1 269.67-30.1Q268.37-30.1 268.27-29L268.27-29 267.52-23.15 266.37-23.15 266.37-25.5Q266.37-29.9 265.92-31.95L265.92-31.95Q267.52-31.5 271.47-31.5L271.47-31.5 284.87-31.5Q288.82-31.5 290.42-31.95L290.42-31.95Q289.97-29.9 289.97-25.5L289.97-25.5 289.97-23.15 288.82-23.15 288.07-29Q287.97-30.1 286.67-30.1L286.67-30.1Z" fill="#332885" data-fill-palette-color="primary"></path></g></svg></g></svg></g><g transform="matrix(1,0,0,1,30.25285652628525,22.17579322351714)"><svg viewBox="0 0 97.88620593321615 9.692190675936661" height="9.692190675936661" width="97.88620593321615"><g transform="matrix(1,0,0,1,0,0)"><svg width="97.88620593321615" viewBox="4.25 -38.70000076293945 497.3500061035156 49.25" height="9.692190675936661" data-palette-color="#332885"><path d="M26.3 0L21.15 0 13.75-14.65 13.45-14.65 8.9-14.65 8.9 0 4.25 0 4.25-34.4 12.3-34.4Q24.6-34.4 24.6-24.7L24.6-24.7Q24.6-21.3 22.95-18.95 21.3-16.6 18.1-15.5L18.1-15.5 26.3 0ZM12.65-18.2Q16.25-18.2 18-19.78 19.75-21.35 19.75-24.7L19.75-24.7Q19.75-27.85 17.98-29.35 16.2-30.85 12.2-30.85L12.2-30.85 8.9-30.85 8.9-18.2 12.65-18.2ZM49.75-13.95Q49.75-12.9 49.65-11.6L49.65-11.6 34.35-11.6Q34.55-7 36.2-4.98 37.85-2.95 40.7-2.95L40.7-2.95Q42.5-2.95 43.92-3.5 45.35-4.05 46.9-5.3L46.9-5.3 48.9-2.65Q45.2 0.65 40.5 0.65L40.5 0.65Q35.35 0.65 32.52-2.93 29.7-6.5 29.7-12.95L29.7-12.95Q29.7-19.4 32.4-23.18 35.1-26.95 39.9-26.95L39.9-26.95Q44.65-26.95 47.2-23.58 49.75-20.2 49.75-13.95L49.75-13.95ZM45.4-14.75L45.4-15.3Q45.4-23.55 39.95-23.55L39.95-23.55Q37.45-23.55 36-21.48 34.55-19.4 34.35-14.75L34.35-14.75 45.4-14.75ZM74.05-29.15L75.3-25.35Q73.15-24.5 68.65-24.5L68.65-24.5Q72.85-22.4 72.85-17.6L72.85-17.6Q72.85-13.65 70.37-11.23 67.9-8.8 63.65-8.8L63.65-8.8Q62.05-8.8 60.75-9.3L60.75-9.3Q59.35-8.3 59.35-6.75L59.35-6.75Q59.35-4.4 62.65-4.4L62.65-4.4 66.1-4.4Q70-4.4 72.3-2.43 74.6-0.45 74.6 2.6L74.6 2.6Q74.6 6.3 71.75 8.43 68.9 10.55 63.4 10.55L63.4 10.55Q57.7 10.55 55.32 8.6 52.95 6.65 52.95 2.65L52.95 2.65 57 2.65Q57 4.3 57.57 5.28 58.15 6.25 59.52 6.73 60.9 7.2 63.45 7.2L63.45 7.2Q67 7.2 68.55 6.1 70.1 5 70.1 2.95L70.1 2.95Q70.1 1.05 68.82 0.05 67.55-0.95 65.2-0.95L65.2-0.95 62.25-0.95Q58.8-0.95 57.1-2.27 55.4-3.6 55.4-5.8L55.4-5.8Q55.4-8.35 58.15-10.35L58.15-10.35Q56.05-11.55 55.02-13.38 54-15.2 54-17.8L54-17.8Q54-21.9 56.6-24.4 59.2-26.9 63.45-26.9L63.45-26.9Q67.4-26.9 69.57-27.45 71.75-28 74.05-29.15L74.05-29.15ZM63.5-23.75Q61.05-23.75 59.77-22.23 58.5-20.7 58.5-17.8L58.5-17.8Q58.5-15 59.82-13.43 61.15-11.85 63.5-11.85L63.5-11.85Q68.45-11.85 68.45-17.85L68.45-17.85Q68.45-20.75 67.2-22.25 65.95-23.75 63.5-23.75L63.5-23.75ZM97.94-13.95Q97.94-12.9 97.84-11.6L97.84-11.6 82.54-11.6Q82.74-7 84.39-4.98 86.04-2.95 88.89-2.95L88.89-2.95Q90.69-2.95 92.12-3.5 93.54-4.05 95.09-5.3L95.09-5.3 97.09-2.65Q93.39 0.65 88.69 0.65L88.69 0.65Q83.54 0.65 80.72-2.93 77.89-6.5 77.89-12.95L77.89-12.95Q77.89-19.4 80.59-23.18 83.29-26.95 88.09-26.95L88.09-26.95Q92.84-26.95 95.39-23.58 97.94-20.2 97.94-13.95L97.94-13.95ZM93.59-14.75L93.59-15.3Q93.59-23.55 88.14-23.55L88.14-23.55Q85.64-23.55 84.19-21.48 82.74-19.4 82.54-14.75L82.54-14.75 93.59-14.75ZM114.99-26.9Q116.29-26.9 117.24-26.6L117.24-26.6 116.49-22.25Q115.54-22.55 114.44-22.55L114.44-22.55Q112.24-22.55 110.87-20.8 109.49-19.05 108.69-15.45L108.69-15.45 108.69 0 104.19 0 104.19-26.3 108.09-26.3 108.44-21.1Q110.39-26.9 114.99-26.9L114.99-26.9ZM121.64-26.3L126.14-26.3 126.14 0 121.64 0 121.64-26.3ZM123.89-38.7Q125.19-38.7 126.01-37.85 126.84-37 126.84-35.75L126.84-35.75Q126.84-34.5 126.04-33.68 125.24-32.85 123.89-32.85L123.89-32.85Q122.59-32.85 121.76-33.68 120.94-34.5 120.94-35.75L120.94-35.75Q120.94-37 121.76-37.85 122.59-38.7 123.89-38.7L123.89-38.7ZM145.99-26.95Q149.14-26.95 150.91-24.88 152.69-22.8 152.69-19.15L152.69-19.15 152.69 0 148.19 0 148.19-18.6Q148.19-21.15 147.34-22.28 146.49-23.4 144.74-23.4L144.74-23.4Q141.44-23.4 138.74-18.7L138.74-18.7 138.74 0 134.24 0 134.24-26.3 138.14-26.3 138.49-22.4Q141.54-26.95 145.99-26.95L145.99-26.95ZM178.63-29.15L179.88-25.35Q177.73-24.5 173.23-24.5L173.23-24.5Q177.43-22.4 177.43-17.6L177.43-17.6Q177.43-13.65 174.96-11.23 172.48-8.8 168.23-8.8L168.23-8.8Q166.63-8.8 165.33-9.3L165.33-9.3Q163.93-8.3 163.93-6.75L163.93-6.75Q163.93-4.4 167.23-4.4L167.23-4.4 170.68-4.4Q174.58-4.4 176.88-2.43 179.18-0.45 179.18 2.6L179.18 2.6Q179.18 6.3 176.33 8.43 173.48 10.55 167.98 10.55L167.98 10.55Q162.28 10.55 159.91 8.6 157.53 6.65 157.53 2.65L157.53 2.65 161.58 2.65Q161.58 4.3 162.16 5.28 162.73 6.25 164.11 6.73 165.48 7.2 168.03 7.2L168.03 7.2Q171.58 7.2 173.13 6.1 174.68 5 174.68 2.95L174.68 2.95Q174.68 1.05 173.41 0.05 172.13-0.95 169.78-0.95L169.78-0.95 166.83-0.95Q163.38-0.95 161.68-2.27 159.98-3.6 159.98-5.8L159.98-5.8Q159.98-8.35 162.73-10.35L162.73-10.35Q160.63-11.55 159.61-13.38 158.58-15.2 158.58-17.8L158.58-17.8Q158.58-21.9 161.18-24.4 163.78-26.9 168.03-26.9L168.03-26.9Q171.98-26.9 174.16-27.45 176.33-28 178.63-29.15L178.63-29.15ZM168.08-23.75Q165.63-23.75 164.36-22.23 163.08-20.7 163.08-17.8L163.08-17.8Q163.08-15 164.41-13.43 165.73-11.85 168.08-11.85L168.08-11.85Q173.03-11.85 173.03-17.85L173.03-17.85Q173.03-20.75 171.78-22.25 170.53-23.75 168.08-23.75L168.08-23.75ZM202.53-13.95Q202.53-12.9 202.43-11.6L202.43-11.6 187.13-11.6Q187.33-7 188.98-4.98 190.63-2.95 193.48-2.95L193.48-2.95Q195.28-2.95 196.71-3.5 198.13-4.05 199.68-5.3L199.68-5.3 201.68-2.65Q197.98 0.65 193.28 0.65L193.28 0.65Q188.13 0.65 185.31-2.93 182.48-6.5 182.48-12.95L182.48-12.95Q182.48-19.4 185.18-23.18 187.88-26.95 192.68-26.95L192.68-26.95Q197.43-26.95 199.98-23.58 202.53-20.2 202.53-13.95L202.53-13.95ZM198.18-14.75L198.18-15.3Q198.18-23.55 192.73-23.55L192.73-23.55Q190.23-23.55 188.78-21.48 187.33-19.4 187.13-14.75L187.13-14.75 198.18-14.75ZM220.53-26.95Q223.68-26.95 225.45-24.88 227.23-22.8 227.23-19.15L227.23-19.15 227.23 0 222.73 0 222.73-18.6Q222.73-21.15 221.88-22.28 221.03-23.4 219.28-23.4L219.28-23.4Q215.98-23.4 213.28-18.7L213.28-18.7 213.28 0 208.78 0 208.78-26.3 212.68-26.3 213.03-22.4Q216.08-26.95 220.53-26.95L220.53-26.95ZM263.27-6Q263.27-4.4 263.72-3.63 264.17-2.85 265.12-2.45L265.12-2.45 264.17 0.6Q262.22 0.3 261.12-0.6 260.02-1.5 259.57-3.35L259.57-3.35Q257.02 0.65 252.42 0.65L252.42 0.65Q248.92 0.65 246.87-1.53 244.82-3.7 244.82-7.35L244.82-7.35Q244.82-11.55 247.57-13.75 250.32-15.95 255.42-15.95L255.42-15.95 258.82-15.95 258.82-18.2Q258.82-20.95 257.7-22.18 256.57-23.4 254.02-23.4L254.02-23.4Q251.27-23.4 247.62-22L247.62-22 246.52-25.15Q250.92-26.95 254.72-26.95L254.72-26.95Q263.27-26.95 263.27-18.4L263.27-18.4 263.27-6ZM253.47-2.75Q256.97-2.75 258.82-6.85L258.82-6.85 258.82-13.05 255.92-13.05Q249.42-13.05 249.42-7.6L249.42-7.6Q249.42-5.25 250.47-4 251.52-2.75 253.47-2.75L253.47-2.75ZM284.62-26.3L289.12-26.3 281.27 0 275.87 0 267.77-26.3 272.47-26.3 278.57-3.8 284.62-26.3ZM310.21 0L305.56 0 305.56-34.4 322.26-34.4 321.76-30.8 310.21-30.8 310.21-18.8 320.21-18.8 320.21-15.2 310.21-15.2 310.21 0ZM338.06-26.9Q339.36-26.9 340.31-26.6L340.31-26.6 339.56-22.25Q338.61-22.55 337.51-22.55L337.51-22.55Q335.31-22.55 333.94-20.8 332.56-19.05 331.76-15.45L331.76-15.45 331.76 0 327.26 0 327.26-26.3 331.16-26.3 331.51-21.1Q333.46-26.9 338.06-26.9L338.06-26.9ZM361.11-6Q361.11-4.4 361.56-3.63 362.01-2.85 362.96-2.45L362.96-2.45 362.01 0.6Q360.06 0.3 358.96-0.6 357.86-1.5 357.41-3.35L357.41-3.35Q354.86 0.65 350.26 0.65L350.26 0.65Q346.76 0.65 344.71-1.53 342.66-3.7 342.66-7.35L342.66-7.35Q342.66-11.55 345.41-13.75 348.16-15.95 353.26-15.95L353.26-15.95 356.66-15.95 356.66-18.2Q356.66-20.95 355.53-22.18 354.41-23.4 351.86-23.4L351.86-23.4Q349.11-23.4 345.46-22L345.46-22 344.36-25.15Q348.76-26.95 352.56-26.95L352.56-26.95Q361.11-26.95 361.11-18.4L361.11-18.4 361.11-6ZM351.31-2.75Q354.81-2.75 356.66-6.85L356.66-6.85 356.66-13.05 353.76-13.05Q347.26-13.05 347.26-7.6L347.26-7.6Q347.26-5.25 348.31-4 349.36-2.75 351.31-2.75L351.31-2.75ZM380.96-26.95Q384.11-26.95 385.88-24.88 387.66-22.8 387.66-19.15L387.66-19.15 387.66 0 383.16 0 383.16-18.6Q383.16-21.15 382.31-22.28 381.46-23.4 379.71-23.4L379.71-23.4Q376.41-23.4 373.71-18.7L373.71-18.7 373.71 0 369.21 0 369.21-26.3 373.11-26.3 373.46-22.4Q376.51-26.95 380.96-26.95L380.96-26.95ZM395.56-36.95L400.06-37.45 400.06 0 395.56 0 395.56-36.95ZM409.2-26.3L413.9-26.3 405-14.6 414.75 0 409.75 0 400.31-14.4 409.2-26.3ZM423.8 0.65Q421.4 0.65 420-0.8 418.6-2.25 418.6-4.85L418.6-4.85 418.6-36.95 423.1-37.45 423.1-5Q423.1-3.05 424.7-3.05L424.7-3.05Q425.35-3.05 426.15-3.35L426.15-3.35 427.15-0.2Q425.55 0.65 423.8 0.65L423.8 0.65ZM448.45-6Q448.45-4.4 448.9-3.63 449.35-2.85 450.3-2.45L450.3-2.45 449.35 0.6Q447.4 0.3 446.3-0.6 445.2-1.5 444.75-3.35L444.75-3.35Q442.2 0.65 437.6 0.65L437.6 0.65Q434.1 0.65 432.05-1.53 430-3.7 430-7.35L430-7.35Q430-11.55 432.75-13.75 435.5-15.95 440.6-15.95L440.6-15.95 444-15.95 444-18.2Q444-20.95 442.88-22.18 441.75-23.4 439.2-23.4L439.2-23.4Q436.45-23.4 432.8-22L432.8-22 431.7-25.15Q436.1-26.95 439.9-26.95L439.9-26.95Q448.45-26.95 448.45-18.4L448.45-18.4 448.45-6ZM438.65-2.75Q442.15-2.75 444-6.85L444-6.85 444-13.05 441.1-13.05Q434.6-13.05 434.6-7.6L434.6-7.6Q434.6-5.25 435.65-4 436.7-2.75 438.65-2.75L438.65-2.75ZM468.3-26.95Q471.45-26.95 473.22-24.88 475-22.8 475-19.15L475-19.15 475 0 470.5 0 470.5-18.6Q470.5-21.15 469.65-22.28 468.8-23.4 467.05-23.4L467.05-23.4Q463.75-23.4 461.05-18.7L461.05-18.7 461.05 0 456.55 0 456.55-26.3 460.45-26.3 460.8-22.4Q463.85-26.95 468.3-26.95L468.3-26.95ZM497.1-37.45L501.6-36.95 501.6 0 497.6 0 497.3-3.45Q494.75 0.65 490.45 0.65L490.45 0.65Q486.15 0.65 483.77-3 481.4-6.65 481.4-13.05L481.4-13.05Q481.4-17.2 482.57-20.35 483.75-23.5 485.9-25.23 488.05-26.95 490.85-26.95L490.85-26.95Q494.6-26.95 497.1-23.8L497.1-23.8 497.1-37.45ZM491.5-2.9Q493.3-2.9 494.62-3.9 495.95-4.9 497.1-6.85L497.1-6.85 497.1-20.05Q494.85-23.4 491.85-23.4L491.85-23.4Q489.2-23.4 487.65-20.85 486.1-18.3 486.15-13.15L486.15-13.15Q486.15-7.9 487.55-5.4 488.95-2.9 491.5-2.9L491.5-2.9Z" opacity="1" transform="matrix(1,0,0,1,0,0)" fill="#332885" class="undefined-text-1" data-fill-palette-color="secondary" id="text-1"></path></svg></g></svg></g></svg></g></svg></g><g transform="matrix(1,0,0,1,72.09100180386967,0)"><svg viewBox="0 0 15.001874972976225 44.041553749045164" height="44.041553749045164" width="15.001874972976225"><g><svg xmlns="http://www.w3.org/2000/svg" xmlns:xlink="http://www.w3.org/1999/xlink" version="1.1" x="0" y="0" viewBox="33.487998962402344 1.0749998092651367 33.316001892089844 97.8070068359375" enable-background="new 0 0 100 100" xml:space="preserve" height="44.041553749045164" width="15.001874972976225" class="icon-icon-0" data-fill-palette-color="accent" id="icon-0"><g fill="#332885" data-fill-palette-color="accent"><g fill="#332885" data-fill-palette-color="accent"><rect x="33.488" y="95.938" width="33.316" height="2.944" fill="#332885" data-fill-palette-color="accent"></rect><path d="M35.356 64.354v30.107h29.601V64.354H35.356zM44.314 92.409h-4.288v-22.62c0-0.735 0.157-1.338 0.352-1.338h3.581c0.195 0 0.355 0.603 0.355 1.338V92.409zM52.302 92.409h-4.286v-22.62c0-0.735 0.154-1.338 0.349-1.338h3.584c0.195 0 0.354 0.603 0.354 1.338V92.409zM60.29 92.409h-4.286v-22.62c0-0.735 0.155-1.338 0.354-1.338h3.582c0.193 0 0.351 0.603 0.351 1.338V92.409z" fill="#332885" data-fill-palette-color="accent"></path><path d="M36.977 31.235v31.801h26.34V31.235H36.977zM44.314 60.154h-4.288V36.342c0-0.779 0.157-1.414 0.352-1.414h3.581c0.195 0 0.355 0.635 0.355 1.414V60.154zM52.302 60.154h-4.286V36.342c0-0.779 0.154-1.414 0.349-1.414h3.584c0.195 0 0.354 0.635 0.354 1.414V60.154zM60.29 60.154h-4.286V36.342c0-0.779 0.155-1.414 0.354-1.414h3.582c0.193 0 0.351 0.635 0.351 1.414V60.154z" fill="#332885" data-fill-palette-color="accent"></path><path d="M39.077 9.546v20.552h22.16V9.546H39.077zM48.308 28.077H44.02V12.49c0-0.503 0.16-0.924 0.351-0.924h3.583c0.196 0 0.354 0.421 0.354 0.924V28.077zM56.295 28.077H52.01V12.49c0-0.503 0.157-0.924 0.352-0.924h3.584c0.192 0 0.35 0.421 0.35 0.924V28.077z" fill="#332885" data-fill-palette-color="accent"></path><path d="M60 5h-6.315c0.021 0 0.047-0.22 0.047-0.379 0-1.986-1.605-3.546-3.584-3.546-1.98 0-3.585 1.538-3.585 3.524 0 0.159 0.027 0.4 0.047 0.4H40v3h9.094c0.335 0 0.684 0.176 1.053 0.176C50.516 8.176 50.865 8 51.2 8H60V5z" fill="#332885" data-fill-palette-color="accent"></path></g></g></svg></g></svg></g><g></g></svg></g></svg></g><g><path d="M17.072 200.026V200.026C17.225 200.451 17.529 200.733 17.982 200.873 18.428 201.015 18.901 200.995 19.401 200.815 19.894 200.636 20.338 200.43 20.734 200.195V200.195L21.147 200.957C20.763 201.223 20.318 201.447 19.812 201.63V201.63C18.794 201.998 17.878 201.983 17.064 201.586 16.252 201.195 15.672 200.518 15.324 199.557V199.557C14.455 197.153 15.475 195.425 18.384 194.373 21.3 193.318 23.308 192.176 24.409 190.944 25.519 189.717 25.664 187.97 24.844 185.704V185.704L23.848 182.95 12.863 186.923C12.469 187.066 12.344 187.333 12.486 187.727V187.727L13.516 190.574 12.748 190.852 9.31 181.346 10.078 181.068 10.799 183.063C10.944 183.462 11.213 183.591 11.606 183.449V183.449L35.694 174.738C36.031 174.616 36.127 174.355 35.983 173.955V173.955L35.261 171.96 36.029 171.683 39.85 182.247C40.71 184.626 40.792 186.883 40.096 189.02 39.394 191.159 37.957 192.621 35.784 193.407V193.407C34.03 194.042 32.354 194.034 30.756 193.383 29.162 192.724 27.818 191.586 26.725 189.969V189.969C26.77 192.219 26.012 193.93 24.451 195.102V195.102C23.163 196.048 21.529 196.879 19.549 197.595 17.57 198.31 16.744 199.121 17.072 200.026ZM38.582 182.462V182.462L37.035 178.182 25.075 182.507 26.623 186.787C27.237 188.485 28.309 189.594 29.838 190.114 31.374 190.632 32.947 190.599 34.558 190.017 36.169 189.434 37.396 188.454 38.239 187.076 39.082 185.698 39.197 184.16 38.582 182.462ZM24.031 212.422V212.422L46.095 199.412C46.404 199.23 46.451 198.956 46.235 198.59V198.59L45.158 196.763 45.861 196.348 50.535 204.275 49.831 204.69 48.754 202.862C48.542 202.502 48.281 202.413 47.972 202.595V202.595L25.908 215.605C25.547 215.817 25.473 216.104 25.686 216.464V216.464L26.763 218.291 26.06 218.706 21.386 210.779 22.089 210.365 23.167 212.192C23.383 212.558 23.671 212.635 24.031 212.422ZM35.724 228.861V228.861L54.742 211.702C55.008 211.462 54.999 211.184 54.715 210.869V210.869L53.294 209.294 53.9 208.746 60.064 215.579 59.458 216.126 58.037 214.551C57.757 214.24 57.483 214.205 57.217 214.445V214.445L38.199 231.604C37.889 231.884 37.874 232.18 38.154 232.49V232.49L39.575 234.065 38.968 234.612 32.804 227.78 33.41 227.233 34.831 228.808C35.116 229.123 35.414 229.141 35.724 228.861ZM50.055 235.125V235.125L47.673 238.67C46.59 240.255 46.38 241.414 47.043 242.149V242.149C47.385 242.529 47.793 242.698 48.265 242.656 48.732 242.619 49.163 242.422 49.557 242.067 49.947 241.715 50.28 241.356 50.558 240.99V240.99L51.227 241.539C50.972 241.93 50.645 242.306 50.246 242.666V242.666C49.442 243.391 48.591 243.726 47.691 243.67 46.787 243.61 45.992 243.2 45.307 242.441V242.441C43.617 240.567 43.703 238.264 45.564 235.529V235.529L47.953 231.978C49.06 230.291 49.597 228.854 49.564 227.668 49.526 226.486 48.953 225.282 47.846 224.054V224.054L48.585 223.387 65.322 222.625 63.808 220.947 64.414 220.4 68.523 224.955 67.917 225.502 67.103 224.6C66.783 224.245 66.345 224.072 65.79 224.081V224.081L49.953 224.769C51.48 226.511 52.179 228.228 52.05 229.918 51.921 231.618 51.255 233.354 50.055 235.126ZM63.325 256.881V256.881C61.699 255.742 60.384 254.16 59.379 252.134V252.134C59.028 251.49 58.751 251.098 58.55 250.957V250.957C58.186 250.702 57.809 250.823 57.42 251.321V251.321L57.019 251.806 56.318 251.314 60.638 245.148 61.307 245.617C60.204 247.665 59.932 249.558 60.49 251.295 61.058 253.03 62.16 254.471 63.796 255.618 65.433 256.765 66.989 257.194 68.463 256.906 69.933 256.614 71.09 255.865 71.936 254.658V254.658C73.281 252.738 73.189 250.509 71.66 247.971V247.971L68.636 242.933C67.724 241.411 67.292 239.904 67.34 238.413 67.393 236.926 67.832 235.593 68.659 234.413V234.413C69.92 232.613 71.608 231.489 73.722 231.041 75.832 230.598 78.02 231.171 80.288 232.76V232.76C81.615 233.689 82.669 235.089 83.451 236.958V236.958C83.732 237.552 83.959 237.91 84.133 238.032V238.032C84.454 238.257 84.806 238.118 85.19 237.617V237.617L85.745 236.912 86.446 237.403 81.971 243.789 81.303 243.321C82.433 241.291 82.803 239.467 82.413 237.848 82.02 236.235 81.092 234.916 79.629 233.891 78.161 232.862 76.747 232.467 75.388 232.707 74.028 232.946 72.991 233.577 72.274 234.599 71.558 235.621 71.191 236.734 71.175 237.939 71.161 239.137 71.532 240.35 72.286 241.575V241.575L75.352 246.642C76.36 248.338 76.865 249.984 76.864 251.581 76.87 253.182 76.44 254.599 75.575 255.834V255.834C74.352 257.579 72.587 258.6 70.279 258.896 67.981 259.191 65.663 258.519 63.325 256.881ZM85.177 266.77V266.77L94.355 242.856C94.484 242.521 94.35 242.278 93.953 242.126V242.126L91.973 241.366 92.265 240.603 100.856 243.9 100.564 244.663 98.583 243.903C98.193 243.753 97.933 243.845 97.805 244.18V244.18L88.627 268.094C88.477 268.484 88.597 268.755 88.988 268.904V268.904L90.968 269.665 90.676 270.427 82.084 267.13 82.377 266.367 84.358 267.127C84.754 267.28 85.028 267.161 85.177 266.77ZM100.791 265.861V265.861L100.274 270.1C100.027 272.003 100.365 273.132 101.289 273.487V273.487C101.766 273.67 102.206 273.636 102.608 273.385 103.008 273.14 103.303 272.77 103.493 272.274 103.681 271.784 103.815 271.313 103.897 270.861V270.861L104.743 271.047C104.692 271.511 104.571 271.994 104.378 272.496V272.496C103.99 273.507 103.383 274.191 102.556 274.549 101.722 274.905 100.828 274.899 99.874 274.533V274.533C97.518 273.629 96.551 271.537 96.97 268.256V268.256L97.492 264.008C97.714 262.002 97.541 260.478 96.974 259.436 96.405 258.399 95.348 257.585 93.805 256.992V256.992L94.162 256.063 108.736 247.799 106.626 246.989 106.918 246.227 112.646 248.425 112.353 249.188 111.219 248.752C110.773 248.581 110.304 248.625 109.813 248.885V248.885L96.007 256.675C98.158 257.536 99.559 258.749 100.21 260.315 100.865 261.889 101.059 263.737 100.791 265.861ZM137.708 279.188L137.619 280 128.432 278.996 128.52 278.184 131.431 278.502 129.239 269.507 119.378 268.429 115.294 276.738 118.215 277.058 118.126 277.869 111.354 277.129 111.443 276.317 113.096 276.498C113.519 276.544 113.825 276.367 114.016 275.968V275.968L126.816 250.237 128.341 250.404 135.271 278.291C135.371 278.722 135.632 278.961 136.054 279.008V279.008ZM128.929 268.21L125.833 255.479 120.009 267.235ZM169.77 276.545L168.34 276.745 148.057 254.178 151.354 277.671C151.412 278.085 151.648 278.263 152.062 278.205V278.205L154.163 277.91 154.276 278.719 147.303 279.697 147.19 278.888 149.291 278.594C149.711 278.535 149.893 278.298 149.835 277.884V277.884L146.275 252.518C146.226 252.163 145.99 252.015 145.569 252.074V252.074L143.469 252.368 143.355 251.56 149.924 250.638 167.287 269.884 164.504 250.05C164.446 249.636 164.209 249.458 163.795 249.516V249.516L161.694 249.811 161.581 249.002 168.554 248.024 168.667 248.833 166.566 249.127C166.146 249.186 165.96 249.393 166.01 249.749V249.749ZM192.566 269.547V269.547C190.727 270.295 188.684 270.542 186.438 270.288V270.288C185.706 270.235 185.227 270.254 184.999 270.347V270.347C184.587 270.514 184.485 270.897 184.692 271.493V271.493L184.882 272.093 184.089 272.416 181.251 265.442 182.007 265.135C183.13 267.172 184.573 268.427 186.335 268.9 188.101 269.364 189.909 269.219 191.76 268.466 193.611 267.713 194.816 266.639 195.373 265.243 195.925 263.851 195.923 262.472 195.367 261.106V261.106C194.484 258.936 192.561 257.804 189.599 257.712V257.712L183.726 257.522C181.953 257.462 180.453 257.008 179.226 256.16 178.005 255.309 177.123 254.216 176.58 252.882V252.882C175.752 250.846 175.722 248.819 176.492 246.8 177.264 244.787 178.932 243.258 181.496 242.215V242.215C182.997 241.604 184.745 241.477 186.739 241.834V241.834C187.391 241.92 187.815 241.923 188.011 241.843V241.843C188.374 241.695 188.449 241.324 188.236 240.73V240.73L187.944 239.881 188.738 239.558 191.677 246.781 190.92 247.089C189.828 245.039 188.496 243.739 186.925 243.188 185.356 242.644 183.744 242.709 182.09 243.382 180.429 244.058 179.331 245.031 178.795 246.303 178.259 247.575 178.226 248.789 178.697 249.945 179.167 251.101 179.904 252.013 180.906 252.68 181.906 253.341 183.126 253.687 184.565 253.718V253.718L190.484 253.89C192.456 253.962 194.113 254.431 195.454 255.297 196.802 256.161 197.76 257.29 198.328 258.686V258.686C199.131 260.66 199.032 262.697 198.03 264.797 197.031 266.887 195.21 268.471 192.566 269.547ZM222.505 251.482L211.235 259.452 210.764 258.785 212.495 257.56C212.842 257.315 212.895 257.021 212.654 256.68V256.68L197.863 235.767C197.656 235.474 197.379 235.451 197.032 235.696V235.696L195.3 236.921 194.829 236.254 202.342 230.941 202.813 231.607 201.081 232.832C200.74 233.074 200.673 233.341 200.88 233.634V233.634L215.774 254.693 223.1 249.512C223.739 249.059 223.894 248.547 223.563 247.976V247.976L221.068 243.276 221.914 242.678 223.139 244.41C224.664 246.567 225.895 248.071 226.83 248.922V248.922C225.887 249.256 224.445 250.109 222.505 251.482ZM234.441 239.199V239.199L216.265 221.151C216.011 220.898 215.734 220.923 215.434 221.224V221.224L213.94 222.73 213.36 222.154 219.844 215.624 220.424 216.2 218.929 217.705C218.634 218.002 218.614 218.276 218.868 218.529V218.529L237.044 236.577C237.341 236.872 237.637 236.871 237.932 236.574V236.574L239.426 235.069 240.006 235.644 233.522 242.174 232.942 241.599 234.437 240.093C234.737 239.792 234.738 239.494 234.441 239.199ZM255.353 214.531L247.027 226.922 246.349 226.466 247.532 224.706C247.769 224.353 247.714 224.06 247.367 223.827V223.827L226.106 209.541C225.808 209.341 225.541 209.418 225.304 209.771V209.771L224.121 211.531 223.443 211.076 231.419 199.205C232.745 197.232 233.563 195.77 233.874 194.82V194.82C234.747 195.734 236.096 196.804 237.92 198.03V198.03L239.672 199.208 239.095 200.067 234.898 198.063C234.319 197.746 233.811 197.913 233.374 198.563V198.563L228.092 206.425 238.309 213.29 243.364 205.767C243.567 205.464 243.512 205.171 243.198 204.888V204.888L240.998 203.146 241.453 202.468 248.19 206.994 247.735 207.672 245.29 206.293C244.909 206.11 244.617 206.169 244.413 206.473V206.473L239.359 213.995 249.576 220.86 255.208 212.478C255.645 211.827 255.608 211.294 255.095 210.878V210.878L251.092 207.372 251.669 206.513 253.43 207.696C255.623 209.169 257.309 210.138 258.485 210.6V210.6C257.723 211.248 256.678 212.558 255.353 214.531ZM243.657 173.987L241.672 179.454 265.915 188.26C266.252 188.382 266.492 188.247 266.635 187.854V187.854L267.975 184.166 268.742 184.445 264.37 196.482 263.602 196.204 264.942 192.515C265.085 192.122 264.987 191.865 264.651 191.742V191.742L240.407 182.936 238.421 188.402C238.156 189.132 238.321 189.641 238.916 189.928V189.928L243.649 192.357 243.292 193.34 241.298 192.615C238.815 191.713 236.947 191.176 235.696 191.004V191.004C236.28 190.192 236.977 188.672 237.786 186.445V186.445L241.914 175.081C242.726 172.847 243.168 171.231 243.241 170.233V170.233C244.308 170.911 246.084 171.7 248.568 172.603V172.603L250.562 173.327 250.208 174.3 245.016 173.135C244.378 172.966 243.925 173.251 243.657 173.987Z" fill="#332885" data-fill-palette-color="accent"></path><path d="M33.802 94.095V94.095C33.951 93.682 33.898 93.279 33.645 92.885 33.396 92.499 33.027 92.218 32.54 92.043 32.053 91.867 31.584 91.748 31.134 91.685V91.685L31.299 90.845C31.758 90.883 32.237 90.992 32.737 91.171V91.171C33.737 91.531 34.419 92.115 34.784 92.924 35.152 93.726 35.165 94.603 34.823 95.552V95.552C33.976 97.907 32.125 98.572 29.27 97.545 26.408 96.515 24.173 96.12 22.563 96.36 20.961 96.595 19.76 97.824 18.96 100.049V100.049L17.986 102.757 28.772 106.637C29.159 106.776 29.423 106.652 29.562 106.265V106.265L30.567 103.472 31.316 103.742 27.962 113.066 27.212 112.796 27.914 110.847C28.055 110.454 27.932 110.187 27.545 110.048V110.048L3.883 101.536C3.552 101.417 3.315 101.554 3.174 101.948V101.948L2.473 103.897 1.723 103.627 5.451 93.263C6.292 90.926 7.644 89.169 9.507 87.991 11.376 86.814 13.38 86.611 15.516 87.379V87.379C17.24 88 18.501 89.056 19.297 90.549 20.088 92.04 20.393 93.741 20.213 95.652V95.652C21.584 93.922 23.226 93.102 25.142 93.191V93.191C26.702 93.287 28.457 93.685 30.406 94.386 32.349 95.085 33.481 94.988 33.802 94.095ZM6.539 93.887V93.887L5.026 98.095 16.777 102.322 18.291 98.114C18.891 96.446 18.774 94.937 17.941 93.586 17.105 92.241 15.897 91.284 14.316 90.715 12.736 90.147 11.195 90.115 9.694 90.619 8.191 91.13 7.139 92.219 6.539 93.887ZM38.617 83.928V83.928L16.947 71.171C16.643 70.993 16.386 71.084 16.173 71.444V71.444L15.123 73.23 14.436 72.825 19.013 65.05 19.7 65.454 18.644 67.248C18.435 67.602 18.482 67.869 18.786 68.047V68.047L40.456 80.804C40.811 81.013 41.093 80.94 41.301 80.585V80.585L42.357 78.791 43.044 79.196 38.467 86.971 37.78 86.567 38.831 84.782C39.043 84.422 38.972 84.137 38.617 83.928ZM48.405 70.066V70.066L29.735 53.222C29.474 52.986 29.203 53.023 28.923 53.334V53.334L27.535 54.872 26.943 54.338 32.988 47.639 33.579 48.173 32.185 49.718C31.909 50.024 31.902 50.294 32.163 50.53V50.53L50.834 67.375C51.139 67.651 51.43 67.636 51.706 67.33V67.33L53.1 65.785 53.692 66.318 47.648 73.018 47.056 72.484 48.444 70.946C48.724 70.635 48.711 70.342 48.405 70.066ZM53.069 55.442V55.442L56.774 57.416C58.432 58.313 59.589 58.4 60.242 57.675V57.675C60.576 57.305 60.698 56.892 60.609 56.436 60.529 55.98 60.297 55.578 59.912 55.231 59.528 54.884 59.139 54.596 58.747 54.367V54.367L59.218 53.652C59.628 53.861 60.03 54.144 60.425 54.5V54.5C61.213 55.211 61.623 56.01 61.655 56.897 61.686 57.784 61.366 58.6 60.695 59.344V59.344C59.036 61.183 56.778 61.332 53.92 59.791V59.791L50.216 57.817C48.457 56.901 47.002 56.522 45.849 56.68 44.695 56.829 43.576 57.505 42.491 58.707V58.707L41.773 58.06 39.33 41.799 37.849 43.44 37.257 42.906 41.293 38.433 41.885 38.967 41.084 39.854C40.769 40.204 40.643 40.65 40.709 41.192V41.192L42.981 56.588C44.522 54.92 46.126 54.064 47.792 54.021 49.468 53.977 51.227 54.451 53.069 55.442ZM75.307 47.897V47.897C73.713 49.012 71.815 49.693 69.612 49.939V49.939C68.893 50.046 68.435 50.168 68.239 50.305V50.305C67.88 50.556 67.866 50.947 68.197 51.477V51.477L68.519 52.006 67.825 52.492 63.586 46.439 64.239 45.982C65.759 47.689 67.415 48.572 69.206 48.631 70.993 48.693 72.691 48.16 74.3 47.033 75.905 45.909 76.821 44.619 77.049 43.162 77.272 41.71 76.97 40.393 76.143 39.213V39.213C74.822 37.326 72.734 36.66 69.881 37.216V37.216L64.223 38.321C62.51 38.653 60.977 38.547 59.624 38.004 58.267 37.455 57.183 36.601 56.371 35.443V35.443C55.133 33.675 54.664 31.743 54.962 29.645 55.26 27.548 56.521 25.72 58.745 24.163V24.163C60.05 23.249 61.696 22.745 63.681 22.651V22.651C64.324 22.598 64.733 22.51 64.907 22.388V22.388C65.217 22.171 65.207 21.798 64.876 21.267V21.267L64.4 20.518 65.093 20.033 69.487 26.306 68.834 26.763C67.336 25.04 65.778 24.089 64.16 23.908 62.537 23.732 61.008 24.147 59.572 25.152 58.131 26.161 57.293 27.332 57.058 28.663 56.818 29.999 57.05 31.17 57.755 32.176 58.456 33.176 59.358 33.886 60.462 34.304 61.565 34.723 62.81 34.787 64.196 34.498V34.498L69.892 33.378C71.801 33.013 73.493 33.097 74.968 33.629 76.437 34.164 77.596 35.038 78.446 36.251V36.251C79.645 37.964 79.997 39.93 79.501 42.15 79 44.374 77.602 46.289 75.307 47.897ZM91.393 36.674V36.674L82.385 13.196C82.259 12.867 82.001 12.778 81.61 12.928V12.928L79.676 13.67 79.391 12.926 87.815 9.694 88.101 10.438 86.157 11.183C85.773 11.331 85.644 11.569 85.77 11.897V11.897L94.777 35.375C94.925 35.76 95.19 35.878 95.575 35.731V35.731L97.518 34.985 97.803 35.729 89.379 38.961 89.094 38.217 91.028 37.475C91.418 37.325 91.54 37.058 91.393 36.674ZM102.178 25.752V25.752L104.586 29.191C105.658 30.742 106.649 31.343 107.56 30.994V30.994C108.025 30.815 108.321 30.503 108.448 30.056 108.584 29.613 108.559 29.149 108.374 28.666 108.188 28.182 107.972 27.749 107.726 27.367V27.367L108.47 26.943C108.741 27.316 108.972 27.75 109.162 28.246V28.246C109.543 29.238 109.546 30.136 109.172 30.941 108.798 31.746 108.143 32.328 107.207 32.687V32.687C104.895 33.574 102.815 32.683 100.966 30.014V30.014L98.558 26.575C97.406 24.962 96.28 23.965 95.181 23.583 94.086 23.193 92.781 23.288 91.269 23.868V23.868L90.923 22.966 96.116 7.363 94.051 8.155 93.766 7.411 99.391 5.253 99.677 5.997 98.561 6.425C98.121 6.594 97.807 6.934 97.62 7.447V7.447L92.667 22.201C94.796 21.412 96.614 21.377 98.119 22.093 99.633 22.814 100.986 24.033 102.178 25.752ZM139.43 26.592L139.517 27.384 130.498 28.372 130.411 27.58 133.272 27.266 129.263 19.109 119.581 20.169 117.432 29.001 120.293 28.687 120.38 29.479 113.737 30.207 113.651 29.415 115.274 29.237C115.683 29.192 115.938 28.957 116.039 28.532V28.532L122.84 1.158 124.335 0.995 136.898 26.248C137.088 26.642 137.39 26.816 137.806 26.77V26.77ZM128.683 17.931L123.012 6.389 119.932 18.889ZM166.765 30.7L165.364 30.504 152.304 3.738 149.079 26.798C149.022 27.206 149.197 27.438 149.605 27.495V27.495L151.666 27.783 151.556 28.572 144.721 27.616 144.831 26.827 146.883 27.114C147.297 27.172 147.533 26.997 147.59 26.59V26.59L151.073 1.686C151.122 1.337 150.939 1.134 150.525 1.076V1.076L148.473 0.789 148.584 0 155.024 0.901 166.219 23.745 168.942 4.276C168.999 3.868 168.824 3.636 168.416 3.579V3.579L166.355 3.29 166.465 2.501 173.3 3.457 173.19 4.246 171.129 3.958C170.721 3.901 170.493 4.047 170.444 4.395V4.395ZM184.6 37.428V37.428C182.798 36.696 181.196 35.472 179.793 33.755V33.755C179.313 33.209 178.962 32.891 178.741 32.801V32.801C178.335 32.636 177.999 32.836 177.733 33.402V33.402L177.464 33.959 176.68 33.64 179.461 26.794 180.199 27.094C179.591 29.298 179.748 31.168 180.672 32.704 181.59 34.238 182.959 35.375 184.779 36.114 186.594 36.852 188.175 36.921 189.522 36.321 190.863 35.72 191.805 34.751 192.347 33.417V33.417C193.214 31.282 192.64 29.168 190.624 27.073V27.073L186.625 22.922C185.416 21.664 184.672 20.319 184.394 18.887 184.118 17.449 184.247 16.075 184.779 14.765V14.765C185.591 12.766 186.959 11.323 188.882 10.434 190.805 9.546 193.025 9.613 195.541 10.635V10.635C197.017 11.235 198.333 12.343 199.489 13.959V13.959C199.884 14.471 200.179 14.766 200.376 14.846V14.846C200.727 14.989 201.035 14.777 201.3 14.211V14.211L201.671 13.405 202.455 13.724 199.572 20.819 198.834 20.519C199.468 18.326 199.421 16.501 198.694 15.044 197.961 13.586 196.782 12.526 195.158 11.866 193.528 11.204 192.091 11.136 190.845 11.662 189.593 12.185 188.736 13.016 188.274 14.154 187.814 15.285 187.708 16.428 187.956 17.582 188.203 18.737 188.825 19.817 189.821 20.823V20.823L193.854 24.999C195.196 26.404 196.044 27.871 196.399 29.398 196.747 30.922 196.642 32.37 196.085 33.742V33.742C195.297 35.68 193.837 37.043 191.703 37.831 189.564 38.617 187.196 38.483 184.6 37.428ZM210.941 52.283L199.88 44.466 200.34 43.816 202.032 45.011C202.373 45.252 202.663 45.205 202.9 44.869V44.869L217.413 24.333C217.616 24.045 217.547 23.781 217.205 23.54V23.54L215.513 22.344 215.973 21.693 223.342 26.901 222.882 27.551 221.182 26.35C220.846 26.112 220.576 26.137 220.373 26.425V26.425L205.757 47.107 212.955 52.194C213.579 52.635 214.103 52.606 214.527 52.11V52.11L218.061 48.265 218.89 48.852 217.689 50.551C216.191 52.672 215.201 54.302 214.721 55.442V55.442C214.104 54.681 212.844 53.628 210.941 52.283ZM222.471 60.503V60.503L240.33 42.8C240.58 42.552 240.558 42.28 240.263 41.983V41.983L238.805 40.512 239.371 39.951 245.723 46.359 245.157 46.92 243.692 45.441C243.402 45.149 243.132 45.127 242.882 45.374V45.374L225.023 63.078C224.731 63.367 224.73 63.658 225.019 63.951V63.951L226.485 65.429 225.919 65.99 219.567 59.582 220.133 59.021 221.591 60.492C221.885 60.789 222.179 60.793 222.471 60.503ZM238.94 84.271L230.791 72.097 231.453 71.653 232.606 73.375C232.838 73.722 233.126 73.782 233.468 73.553V73.553L254.365 59.565C254.657 59.369 254.687 59.098 254.455 58.75V58.75L253.302 57.029 253.964 56.586 261.764 68.238C263.064 70.18 264.087 71.469 264.832 72.105V72.105C263.68 72.556 262.208 73.382 260.414 74.583V74.583L258.685 75.74 258.12 74.896 261.506 71.827C262.013 71.415 262.053 70.889 261.624 70.249V70.249L256.456 62.528 246.409 69.253 251.356 76.643C251.555 76.941 251.842 77.001 252.218 76.821V76.821L254.624 75.475 255.067 76.137 248.446 80.568 248.003 79.906 250.165 78.195C250.474 77.917 250.529 77.628 250.329 77.33V77.33L245.382 69.94 235.335 76.665 240.853 84.908C241.278 85.542 241.777 85.704 242.351 85.391V85.391L247.026 83.065 247.591 83.909 245.861 85.067C243.704 86.511 242.197 87.68 241.34 88.572V88.572C241.037 87.641 240.237 86.207 238.94 84.271ZM275.614 102.172L273.672 96.795 249.853 105.401C249.522 105.521 249.427 105.777 249.57 106.171V106.171L250.876 109.786 250.127 110.057 245.856 98.236 246.605 97.966 247.915 101.591C248.055 101.978 248.29 102.111 248.621 101.992V101.992L272.44 93.386 270.501 88.019C270.239 87.295 269.792 87.015 269.16 87.18V87.18L264.062 88.312 263.717 87.357 265.675 86.649C268.116 85.767 269.86 84.996 270.906 84.336V84.336C270.977 85.313 271.409 86.9 272.203 89.098V89.098L276.234 100.253C277.026 102.445 277.707 103.939 278.277 104.736V104.736C277.05 104.896 275.216 105.418 272.775 106.3V106.3L270.817 107.007 270.472 106.052 275.116 103.665C275.707 103.387 275.873 102.89 275.614 102.172Z" fill="#332885" data-fill-palette-color="accent"></path><path d="M3.231 143.831C3.231 137.837 8.091 132.978 14.085 132.978 20.079 132.978 24.939 137.837 24.939 143.831 24.939 149.826 20.079 154.685 14.085 154.685 8.091 154.685 3.231 149.826 3.231 143.831ZM254.203 143.831C254.203 137.837 259.062 132.978 265.057 132.978 271.051 132.978 275.91 137.837 275.91 143.831 275.91 149.826 271.051 154.685 265.057 154.685 259.062 154.685 254.203 149.826 254.203 143.831Z" fill="#332885" data-fill-palette-color="accent"></path></g></svg></g><defs></defs></svg><rect width="280" height="280" fill="none" stroke="none" visibility="hidden"></rect></g></svg></g></svg>