<svg xmlns="http://www.w3.org/2000/svg" version="1.1" xmlns:xlink="http://www.w3.org/1999/xlink" xmlns:svgjs="http://svgjs.dev/svgjs" width="1000" height="623" viewBox="0 0 1000 623"><g transform="matrix(1,0,0,1,-0.6060606060606233,120.35432688356144)"><svg viewBox="0 0 396 247" data-background-color="#ffffff" preserveAspectRatio="xMidYMid meet" height="623" width="1000" xmlns="http://www.w3.org/2000/svg" xmlns:xlink="http://www.w3.org/1999/xlink"><g id="tight-bounds" transform="matrix(1,0,0,1,0.2400000000000091,-0.09999999999999432)"><svg viewBox="0 0 395.52 247.2" height="247.2" width="395.52"><g><svg></svg></g><g><svg viewBox="0 0 395.52 247.2" height="247.2" width="395.52"><g transform="matrix(1,0,0,1,75.54432,56.824351123868)"><svg viewBox="0 0 244.43135999999998 133.551297752264" height="133.551297752264" width="244.43135999999998"><g><svg viewBox="0 0 245.65351679999992 134.21905424102528" height="133.551297752264" width="244.43135999999998"><g><rect width="245.65351679999992" height="2.5146609552911454" x="0" y="75.35718327690739" fill="#0074d9" opacity="1" stroke-width="0" stroke="transparent" fill-opacity="1" class="rect-o$-0" data-fill-palette-color="primary" rx="1%" id="o$-0" data-palette-color="#0074d9"></rect></g><g transform="matrix(1,0,0,1,0.6110783999999825,84.45472631411253)"><svg viewBox="0 0 244.43135999999996 49.76432792691273" height="49.76432792691273" width="244.43135999999996"><g id="textblocktransform"><svg viewBox="0 0 244.43135999999996 49.76432792691273" height="49.76432792691273" width="244.43135999999996" id="textblock"><g><svg viewBox="0 0 244.43135999999996 27.884588361010827" height="27.884588361010827" width="244.43135999999996"><g transform="matrix(1,0,0,1,0,0)"><svg width="244.43135999999996" viewBox="1.75 -39 349.03 39.5" height="27.884588361010827" data-palette-color="#0074d9"><g class="undefined-text-0" data-fill-palette-color="primary" id="text-0"><path d="M34.75-28.85L34.75-28.85Q34.75-24.7 32.35-21.9 29.95-19.1 24.7-18.15L24.7-18.15 36.3-4.85Q37.5-3.45 39.15-2.73 40.8-2 42.5-2L42.5-2 42.5 0 30.65 0 18.25-15.2Q17-16.7 16.07-17.23 15.15-17.75 14.35-17.75L14.35-17.75 14.35-7.95Q14.35-6.1 14.6-4.93 14.85-3.75 15.6-3.1 16.35-2.45 17.78-2.23 19.2-2 21.6-2L21.6-2 21.6 0 1.75 0 1.75-2Q3.4-2 4.42-2.23 5.45-2.45 6.03-3.08 6.6-3.7 6.8-4.83 7-5.95 7-7.7L7-7.7 7-30.8Q7-32.55 6.85-33.63 6.7-34.7 6.2-35.33 5.7-35.95 4.78-36.18 3.85-36.4 2.3-36.5L2.3-36.5 2.3-38.5 19.6-38.5Q26.85-38.5 30.8-35.95 34.75-33.4 34.75-28.85ZM14.35-34.85L14.35-20.75 17.6-20.75Q22.3-20.75 24.63-22.58 26.95-24.4 26.95-28.6L26.95-28.6Q26.95-31.8 25-33.75 23.05-35.7 19.6-35.7L19.6-35.7 15.25-35.7Q14.35-35.7 14.35-34.85L14.35-34.85ZM60.4-2L60.4 0 42.55 0 42.55-2Q44.25-2.05 45.27-2.33 46.3-2.6 46.85-3.35 47.4-4.1 47.6-5.48 47.8-6.85 47.8-9.2L47.8-9.2 47.8-29.3Q47.8-31.4 47.62-32.77 47.45-34.15 46.95-34.95 46.45-35.75 45.52-36.08 44.6-36.4 43.05-36.5L43.05-36.5 43.05-38.5 59.9-38.5 59.9-36.5Q58.35-36.4 57.42-36.08 56.5-35.75 56-34.95 55.5-34.15 55.32-32.77 55.15-31.4 55.15-29.3L55.15-29.3 55.15-9.2Q55.15-6.85 55.32-5.48 55.5-4.1 56.07-3.35 56.65-2.6 57.67-2.33 58.7-2.05 60.4-2L60.4-2ZM76.55-14.65L76.55-8.05Q76.55-6.15 76.72-5 76.9-3.85 77.4-3.2 77.9-2.55 78.82-2.3 79.75-2.05 81.3-2L81.3-2 81.3 0 63.95 0 63.95-2Q65.6-2.05 66.65-2.3 67.7-2.55 68.25-3.15 68.8-3.75 69-4.85 69.2-5.95 69.2-7.7L69.2-7.7 69.2-30.8Q69.2-32.5 69.02-33.6 68.85-34.7 68.35-35.3 67.85-35.9 66.92-36.15 66-36.4 64.5-36.5L64.5-36.5 64.5-38.5 81.75-38.5 81.75-36.5Q80.05-36.45 79.02-36.2 78-35.95 77.45-35.3 76.9-34.65 76.72-33.5 76.55-32.35 76.55-30.45L76.55-30.45 76.55-19.35 89.5-33.25Q90.65-34.5 90.65-35.35L90.65-35.35Q90.65-35.9 89.92-36.2 89.2-36.5 87.25-36.5L87.25-36.5 87.25-38.5 100.9-38.5 100.9-36.55Q99.8-36.5 98.97-36.35 98.15-36.2 97.32-35.7 96.5-35.2 95.47-34.27 94.45-33.35 92.95-31.8L92.95-31.8 84.05-22.5 98.75-4.6Q99.8-3.3 101.07-2.7 102.35-2.1 104.35-2L104.35-2 104.35 0 85.85 0 85.85-2Q87.9-2.05 88.8-2.35 89.7-2.65 89.7-3.35L89.7-3.35Q89.7-3.6 89.62-3.83 89.55-4.05 89.37-4.38 89.2-4.7 88.85-5.18 88.5-5.65 87.9-6.35L87.9-6.35 79.05-17.25 76.55-14.65ZM106.74 0L105.99-12.75 107.94-12.75Q108.64-8 111.74-5.28 114.84-2.55 119.39-2.55L119.39-2.55Q121.24-2.55 122.79-3 124.34-3.45 125.44-4.28 126.54-5.1 127.14-6.23 127.74-7.35 127.74-8.75L127.74-8.75Q127.74-9.95 127.37-10.83 126.99-11.7 125.94-12.53 124.89-13.35 123.07-14.2 121.24-15.05 118.34-16.15L118.34-16.15Q112.49-18.4 109.69-21.38 106.89-24.35 106.89-28.4L106.89-28.4Q106.89-30.75 107.79-32.7 108.69-34.65 110.32-36.05 111.94-37.45 114.22-38.23 116.49-39 119.24-39L119.24-39Q121.79-39 124.04-38.2 126.29-37.4 128.49-35.8L128.49-35.8 129.39-38.3 130.59-38.3 131.14-27.5 129.19-27.5Q127.99-31.6 125.44-33.77 122.89-35.95 119.54-35.95L119.54-35.95Q116.44-35.95 114.52-34.43 112.59-32.9 112.59-30.5L112.59-30.5Q112.59-29.45 112.94-28.63 113.29-27.8 114.24-27.05 115.19-26.3 116.84-25.53 118.49-24.75 121.09-23.8L121.09-23.8Q124.59-22.45 127.07-21.08 129.54-19.7 131.12-18.13 132.69-16.55 133.44-14.8 134.19-13.05 134.19-10.95L134.19-10.95Q134.19-8.4 133.09-6.3 131.99-4.2 130.02-2.7 128.04-1.2 125.32-0.35 122.59 0.5 119.29 0.5L119.29 0.5Q116.29 0.5 113.89-0.33 111.49-1.15 108.94-3L108.94-3 107.94 0 106.74 0ZM159.04 0L138.19 0 138.19-2Q139.84-2.05 140.87-2.27 141.89-2.5 142.47-3.13 143.04-3.75 143.24-4.83 143.44-5.9 143.44-7.7L143.44-7.7 143.44-30.8Q143.44-32.55 143.29-33.63 143.14-34.7 142.64-35.33 142.14-35.95 141.27-36.18 140.39-36.4 138.99-36.5L138.99-36.5 138.99-38.5 157.99-38.5Q162.79-38.5 166.84-37 170.89-35.5 173.84-32.85 176.79-30.2 178.44-26.55 180.09-22.9 180.09-18.6L180.09-18.6Q180.09-14.5 178.54-11.08 176.99-7.65 174.22-5.2 171.44-2.75 167.57-1.38 163.69 0 159.04 0L159.04 0ZM157.89-35.45L151.64-35.45Q150.79-35.45 150.79-34.6L150.79-34.6 150.79-8.75Q150.79-5.85 152.59-4.45 154.39-3.05 158.14-3.05L158.14-3.05Q164.69-3.05 168.22-7 171.74-10.95 171.74-18.5L171.74-18.5Q171.74-22.5 170.79-25.65 169.84-28.8 168.04-30.98 166.24-33.15 163.67-34.3 161.09-35.45 157.89-35.45L157.89-35.45ZM208.59-8.65L207.44-11.65 193.29-11.65Q190.94-6.35 190.94-4.3L190.94-4.3Q190.94-2.8 192.06-2.4 193.19-2 195.44-2L195.44-2 195.44 0 181.74 0 181.74-2Q182.94-2.15 183.81-2.4 184.69-2.65 185.36-3.1 186.04-3.55 186.54-4.28 187.04-5 187.49-6.05L187.49-6.05 200.64-39 204.34-39 216.29-9.8Q217.34-7.25 218.06-5.8 218.79-4.35 219.61-3.58 220.44-2.8 221.51-2.5 222.59-2.2 224.29-2.05L224.29-2.05 224.29 0 205.39 0 205.39-2.05Q207.79-2.15 208.84-2.55 209.89-2.95 209.89-4.15L209.89-4.15Q209.89-4.85 209.54-5.95 209.19-7.05 208.59-8.65L208.59-8.65ZM200.39-29.8L194.44-14.65 206.34-14.65 200.59-29.8 200.39-29.8ZM244.74 0.5L244.74 0.5Q240.24 0.5 236.61-0.83 232.99-2.15 230.46-4.63 227.94-7.1 226.56-10.63 225.19-14.15 225.19-18.55L225.19-18.55Q225.19-23.1 226.66-26.88 228.14-30.65 230.79-33.35 233.44-36.05 237.14-37.52 240.84-39 245.34-39L245.34-39Q248.44-39 251.24-38.15 254.04-37.3 257.29-35.4L257.29-35.4 258.24-38.5 260.04-38.5 260.04-25.85 257.54-25.85Q256.54-30.55 253.51-33.15 250.49-35.75 245.94-35.75L245.94-35.75Q240.19-35.75 237.01-31.33 233.84-26.9 233.84-18.95L233.84-18.95Q233.84-11.15 236.94-7 240.04-2.85 245.94-2.85L245.94-2.85Q250.19-2.85 252.56-5.03 254.94-7.2 254.94-11.05L254.94-11.05Q254.94-13.35 253.74-14.43 252.54-15.5 249.69-15.75L249.69-15.75 249.69-17.75 265.89-17.75 265.89-15.75Q263.44-15.75 262.49-14.68 261.54-13.6 261.54-10.8L261.54-10.8 261.54-4.15Q260.44-4.15 259.69-4.08 258.94-4 258.21-3.78 257.49-3.55 256.59-3.05 255.69-2.55 254.34-1.75L254.34-1.75Q250.49 0.5 244.74 0.5ZM280.98-34L280.98-21.3Q284.18-21.3 286.13-21.5 288.08-21.7 289.16-22.33 290.23-22.95 290.68-24.15 291.13-25.35 291.38-27.4L291.38-27.4 293.23-27.4 293.23-12.75 291.38-12.75Q291.08-14.75 290.58-15.95 290.08-17.15 288.98-17.78 287.88-18.4 286.01-18.57 284.13-18.75 280.98-18.75L280.98-18.75 280.98-8.45Q280.98-6.85 281.41-5.75 281.83-4.65 282.83-3.98 283.83-3.3 285.48-3.03 287.13-2.75 289.53-2.75L289.53-2.75Q292.38-2.75 294.36-3.15 296.33-3.55 297.63-4.55 298.93-5.55 299.73-7.23 300.53-8.9 301.08-11.45L301.08-11.45 303.08-11.45 302.28 0 268.38 0 268.38-2Q270.03-2.05 271.08-2.3 272.13-2.55 272.68-3.15 273.23-3.75 273.43-4.85 273.63-5.95 273.63-7.7L273.63-7.7 273.63-30.8Q273.63-32.55 273.46-33.63 273.28-34.7 272.78-35.33 272.28-35.95 271.36-36.18 270.43-36.4 268.93-36.5L268.93-36.5 268.93-38.5 300.53-38.5 300.88-28.7 298.73-28.7Q298.43-30.8 297.78-32.18 297.13-33.55 295.98-34.38 294.83-35.2 293.01-35.52 291.18-35.85 288.53-35.85L288.53-35.85 282.88-35.85Q281.58-35.85 281.28-35.52 280.98-35.2 280.98-34L280.98-34ZM345.03 0.5L338.33 0.5 316.18-31.05 315.98-31.05 315.98-9.55Q315.98-7.05 316.16-5.6 316.33-4.15 316.91-3.35 317.48-2.55 318.51-2.3 319.53-2.05 321.18-2L321.18-2 321.18 0 306.33 0 306.33-2Q308.18-2.05 309.31-2.33 310.43-2.6 311.06-3.35 311.68-4.1 311.88-5.48 312.08-6.85 312.08-9.2L312.08-9.2 312.08-29.3Q312.08-31.4 311.88-32.77 311.68-34.15 311.13-34.95 310.58-35.75 309.56-36.08 308.53-36.4 306.83-36.5L306.83-36.5 306.83-38.5 320.78-38.5 340.93-9.6 341.13-9.6 341.13-28.95Q341.13-31.4 340.96-32.88 340.78-34.35 340.21-35.15 339.63-35.95 338.61-36.2 337.58-36.45 335.93-36.5L335.93-36.5 335.93-38.5 350.78-38.5 350.78-36.5Q348.93-36.45 347.81-36.18 346.68-35.9 346.06-35.15 345.43-34.4 345.23-33 345.03-31.6 345.03-29.3L345.03-29.3 345.03 0.5Z" fill="#0074d9" data-fill-palette-color="primary"></path></g></svg></g></svg></g><g transform="matrix(1,0,0,1,46.68638976,34.46747044292482)"><svg viewBox="0 0 151.05858047999996 15.29685748398791" height="15.29685748398791" width="151.05858047999996"><g transform="matrix(1,0,0,1,0,0)"><svg width="151.05858047999996" viewBox="3.35 -36.15 446.79999999999995 45.25" height="15.29685748398791" data-palette-color="#0074d9"><path d="M3.35 0L3.35-34.3 17.3-34.3Q22.3-34.3 24.98-31.68 27.65-29.05 27.65-24.7L27.65-24.7Q27.65-21.55 26.05-19.2 24.45-16.85 21.65-15.85L21.65-15.85 28.45 0 22.9 0 16.75-14.9 8.35-14.9 8.35 0 3.35 0ZM8.35-19.4L16.95-19.4Q19.45-19.4 20.88-20.85 22.3-22.3 22.3-24.7L22.3-24.7Q22.3-27.05 20.95-28.4 19.6-29.75 17-29.75L17-29.75 8.35-29.75 8.35-19.4ZM32.95 0L32.95-26.3 37.65-26.3 37.65 0 32.95 0ZM32.85-31.1L32.85-36.15 37.65-36.15 37.65-31.1 32.85-31.1ZM43.9 0L43.9-36.15 48.6-36.15 48.6-14.65 56.75-26.3 61.9-26.3 54.1-15.55 62.3 0 57 0 51.2-11.65 48.6-8.7 48.6 0 43.9 0ZM72.69 0.6Q68.39 0.6 66.14-1.65 63.89-3.9 63.89-7.3L63.89-7.3Q63.89-7.85 63.92-8.03 63.94-8.2 63.94-8.25L63.94-8.25 68.79-8.25 68.79-7.8Q68.84-5.55 69.97-4.48 71.09-3.4 72.89-3.4L72.89-3.4Q74.49-3.4 75.59-4.33 76.69-5.25 76.69-7L76.69-7Q76.69-8.3 76.02-9.13 75.34-9.95 74.34-10.43 73.34-10.9 71.59-11.5L71.59-11.5Q69.29-12.25 67.87-12.98 66.44-13.7 65.44-15.23 64.44-16.75 64.44-19.25L64.44-19.25Q64.44-22.85 66.79-24.88 69.14-26.9 72.99-26.9L72.99-26.9Q76.64-26.9 78.82-24.88 80.99-22.85 80.99-19.7L80.99-19.7 80.94-18.7 76.09-18.7 76.09-19.05Q76.09-20.75 75.27-21.83 74.44-22.9 72.69-22.9L72.69-22.9Q70.89-22.9 70.07-21.9 69.24-20.9 69.24-19.6L69.24-19.6Q69.24-18 70.42-17.23 71.59-16.45 74.04-15.7L74.04-15.7Q76.44-14.95 77.92-14.2 79.39-13.45 80.47-11.88 81.54-10.3 81.54-7.65L81.54-7.65Q81.54-3.45 79.14-1.43 76.74 0.6 72.69 0.6L72.69 0.6ZM93.74 0.6Q89.84 0.6 87.67-2.8 85.49-6.2 85.49-13.2L85.49-13.2Q85.49-20.05 87.69-23.48 89.89-26.9 93.44-26.9L93.44-26.9Q95.39-26.9 96.92-26.08 98.44-25.25 99.14-23.75L99.14-23.75 99.39-23.75 99.39-36.15 104.09-36.15 104.09 0 100.39 0 99.79-3.1 99.54-3.1Q98.59-1.3 97.09-0.35 95.59 0.6 93.74 0.6L93.74 0.6ZM94.89-3.6Q97.19-3.6 98.29-5.75 99.39-7.9 99.39-12.2L99.39-12.2 99.39-13.95Q99.39-22.7 94.89-22.7L94.89-22.7Q92.59-22.7 91.52-20.65 90.44-18.6 90.44-14.1L90.44-14.1 90.44-12.2Q90.44-7.7 91.52-5.65 92.59-3.6 94.89-3.6L94.89-3.6ZM115.19 0.6Q112.59 0.6 110.49-1.03 108.39-2.65 108.39-6.8L108.39-6.8Q108.39-11.85 111.81-13.8 115.24-15.75 121.59-15.75L121.59-15.75 121.59-18.9Q121.59-20.8 120.79-21.83 119.99-22.85 117.89-22.85L117.89-22.85Q115.89-22.85 115.01-21.78 114.14-20.7 114.14-19.15L114.14-19.15 114.14-18.5 109.49-18.5Q109.44-18.8 109.44-19.6L109.44-19.6Q109.44-23.05 111.79-24.98 114.14-26.9 118.04-26.9L118.04-26.9Q122.14-26.9 124.21-24.95 126.29-23 126.29-19.4L126.29-19.4 126.29-5.25Q126.29-4.4 126.69-3.95 127.09-3.5 127.69-3.5L127.69-3.5 129.19-3.5 129.19-0.2Q128.09 0.45 126.24 0.45L126.24 0.45Q124.59 0.45 123.44-0.43 122.29-1.3 121.89-2.85L121.89-2.85 121.64-2.85Q119.39 0.6 115.19 0.6L115.19 0.6ZM116.64-3.5Q118.69-3.5 120.14-5.2 121.59-6.9 121.59-9.75L121.59-9.75 121.59-11.85Q117.59-11.85 115.41-10.85 113.24-9.85 113.24-7.15L113.24-7.15Q113.24-5.2 114.06-4.35 114.89-3.5 116.64-3.5L116.64-3.5ZM136.79 9.1Q133.89 9.1 132.19 7.35 130.49 5.6 130.49 2.9L130.49 2.9Q130.49 1 131.41-0.48 132.34-1.95 133.89-2.6L133.89-2.6Q132.89-3.25 132.31-4.3 131.74-5.35 131.74-6.55L131.74-6.55Q131.74-8.15 132.76-9.33 133.79-10.5 135.49-11.1L135.49-11.1Q133.99-12.3 133.19-14.05 132.39-15.8 132.39-18L132.39-18Q132.39-22.15 134.76-24.53 137.14-26.9 141.34-26.9L141.34-26.9Q143.64-26.9 145.34-26L145.34-26Q148.04-27.65 148.34-30.6L148.34-30.6 152.39-30.6Q152.39-28.1 151.24-26.4 150.09-24.7 148.04-24.15L148.04-24.15Q150.29-21.75 150.29-18L150.29-18Q150.29-13.95 147.94-11.55 145.59-9.15 141.49-9.15L141.49-9.15 138.79-9.15Q137.84-9.15 137.21-8.53 136.59-7.9 136.59-7L136.59-7Q136.59-6.15 137.21-5.55 137.84-4.95 138.74-4.95L138.74-4.95 146.74-4.95Q149.44-4.95 151.14-3.13 152.84-1.3 152.84 1.45L152.84 1.45Q152.84 4.8 150.69 6.95 148.54 9.1 144.89 9.1L144.89 9.1 136.79 9.1ZM141.29-12.85Q143.34-12.85 144.44-14.23 145.54-15.6 145.54-18L145.54-18Q145.54-20.5 144.46-21.83 143.39-23.15 141.29-23.15L141.29-23.15Q139.24-23.15 138.16-21.8 137.09-20.45 137.09-18L137.09-18Q137.09-15.55 138.16-14.2 139.24-12.85 141.29-12.85L141.29-12.85ZM138.04 5.25L145.14 5.25Q146.39 5.25 147.24 4.42 148.09 3.6 148.09 2.35L148.09 2.35Q148.09 1.1 147.34 0.3 146.59-0.5 145.24-0.5L145.24-0.5 138.04-0.5Q136.69-0.5 135.94 0.3 135.19 1.1 135.19 2.35L135.19 2.35Q135.19 3.6 135.96 4.42 136.74 5.25 138.04 5.25L138.04 5.25ZM165.28 0.6Q160.23 0.6 157.73-2.7 155.23-6 155.23-13.15L155.23-13.15Q155.23-20.2 157.71-23.55 160.18-26.9 165.18-26.9L165.18-26.9Q169.68-26.9 171.88-23.83 174.08-20.75 174.08-14.1L174.08-14.1 174.08-11.85 160.13-11.85Q160.18-7.55 161.41-5.5 162.63-3.45 165.33-3.45L165.33-3.45Q167.18-3.45 168.31-4.95 169.43-6.45 169.43-9.05L169.43-9.05 174.08-9.05Q174.08-4.55 171.66-1.98 169.23 0.6 165.28 0.6L165.28 0.6ZM160.18-15.75L169.18-15.75Q169.18-19.2 168.18-21.03 167.18-22.85 165.18-22.85L165.18-22.85Q162.78-22.85 161.61-21.1 160.43-19.35 160.18-15.75L160.18-15.75ZM178.98 0L178.98-26.3 182.68-26.3 183.28-23.2 183.58-23.2Q184.63-25 186.28-25.95 187.93-26.9 190.03-26.9L190.03-26.9Q196.68-26.9 196.68-18.8L196.68-18.8 196.68 0 191.98 0 191.98-18.05Q191.98-20.6 191.06-21.65 190.13-22.7 188.33-22.7L188.33-22.7Q186.38-22.7 185.03-20.88 183.68-19.05 183.68-16.1L183.68-16.1 183.68 0 178.98 0ZM219.18 0.6Q216.58 0.6 214.48-1.03 212.38-2.65 212.38-6.8L212.38-6.8Q212.38-11.85 215.8-13.8 219.23-15.75 225.58-15.75L225.58-15.75 225.58-18.9Q225.58-20.8 224.78-21.83 223.98-22.85 221.88-22.85L221.88-22.85Q219.88-22.85 219-21.78 218.13-20.7 218.13-19.15L218.13-19.15 218.13-18.5 213.48-18.5Q213.43-18.8 213.43-19.6L213.43-19.6Q213.43-23.05 215.78-24.98 218.13-26.9 222.03-26.9L222.03-26.9Q226.13-26.9 228.2-24.95 230.28-23 230.28-19.4L230.28-19.4 230.28-5.25Q230.28-4.4 230.68-3.95 231.08-3.5 231.68-3.5L231.68-3.5 233.18-3.5 233.18-0.2Q232.08 0.45 230.23 0.45L230.23 0.45Q228.58 0.45 227.43-0.43 226.28-1.3 225.88-2.85L225.88-2.85 225.63-2.85Q223.38 0.6 219.18 0.6L219.18 0.6ZM220.63-3.5Q222.68-3.5 224.13-5.2 225.58-6.9 225.58-9.75L225.58-9.75 225.58-11.85Q221.58-11.85 219.4-10.85 217.23-9.85 217.23-7.15L217.23-7.15Q217.23-5.2 218.05-4.35 218.88-3.5 220.63-3.5L220.63-3.5ZM241.92 0L234.17-26.3 239.22-26.3 242.77-13.6Q243.02-12.7 243.25-11.73 243.47-10.75 243.72-9.85L243.72-9.85Q244.42-6.9 244.52-6.55L244.52-6.55 244.72-6.55 245.27-8.95Q246.07-12.4 246.42-13.7L246.42-13.7 249.87-26.3 254.62-26.3 246.87 0 241.92 0ZM269.77 0L269.77-34.3 289.67-34.3 289.67-29.75 274.77-29.75 274.77-19.45 287.82-19.45 287.82-14.9 274.77-14.9 274.77 0 269.77 0ZM294.37 0L294.37-26.3 298.07-26.3 298.67-22.7 298.97-22.7Q300.37-26.9 303.47-26.9L303.47-26.9Q304.67-26.9 305.57-26.5L305.57-26.5 305.57-21.75 303.97-21.75Q301.82-21.75 300.44-20.3 299.07-18.85 299.07-15.6L299.07-15.6 299.07 0 294.37 0ZM314.06 0.6Q311.46 0.6 309.36-1.03 307.26-2.65 307.26-6.8L307.26-6.8Q307.26-11.85 310.69-13.8 314.11-15.75 320.46-15.75L320.46-15.75 320.46-18.9Q320.46-20.8 319.66-21.83 318.86-22.85 316.76-22.85L316.76-22.85Q314.76-22.85 313.89-21.78 313.01-20.7 313.01-19.15L313.01-19.15 313.01-18.5 308.36-18.5Q308.31-18.8 308.31-19.6L308.31-19.6Q308.31-23.05 310.66-24.98 313.01-26.9 316.91-26.9L316.91-26.9Q321.01-26.9 323.09-24.95 325.16-23 325.16-19.4L325.16-19.4 325.16-5.25Q325.16-4.4 325.56-3.95 325.96-3.5 326.56-3.5L326.56-3.5 328.06-3.5 328.06-0.2Q326.96 0.45 325.11 0.45L325.11 0.45Q323.46 0.45 322.31-0.43 321.16-1.3 320.76-2.85L320.76-2.85 320.51-2.85Q318.26 0.6 314.06 0.6L314.06 0.6ZM315.51-3.5Q317.56-3.5 319.01-5.2 320.46-6.9 320.46-9.75L320.46-9.75 320.46-11.85Q316.46-11.85 314.29-10.85 312.11-9.85 312.11-7.15L312.11-7.15Q312.11-5.2 312.94-4.35 313.76-3.5 315.51-3.5L315.51-3.5ZM331.56 0L331.56-26.3 335.26-26.3 335.86-23.2 336.16-23.2Q337.21-25 338.86-25.95 340.51-26.9 342.61-26.9L342.61-26.9Q349.26-26.9 349.26-18.8L349.26-18.8 349.26 0 344.56 0 344.56-18.05Q344.56-20.6 343.64-21.65 342.71-22.7 340.91-22.7L340.91-22.7Q338.96-22.7 337.61-20.88 336.26-19.05 336.26-16.1L336.26-16.1 336.26 0 331.56 0ZM355.06 0L355.06-36.15 359.76-36.15 359.76-14.65 367.91-26.3 373.06-26.3 365.26-15.55 373.46 0 368.16 0 362.36-11.65 359.76-8.7 359.76 0 355.06 0ZM375.96 0L375.96-36.15 380.66-36.15 380.66 0 375.96 0ZM391.45 0.6Q388.85 0.6 386.75-1.03 384.65-2.65 384.65-6.8L384.65-6.8Q384.65-11.85 388.08-13.8 391.5-15.75 397.85-15.75L397.85-15.75 397.85-18.9Q397.85-20.8 397.05-21.83 396.25-22.85 394.15-22.85L394.15-22.85Q392.15-22.85 391.28-21.78 390.4-20.7 390.4-19.15L390.4-19.15 390.4-18.5 385.75-18.5Q385.7-18.8 385.7-19.6L385.7-19.6Q385.7-23.05 388.05-24.98 390.4-26.9 394.3-26.9L394.3-26.9Q398.4-26.9 400.48-24.95 402.55-23 402.55-19.4L402.55-19.4 402.55-5.25Q402.55-4.4 402.95-3.95 403.35-3.5 403.95-3.5L403.95-3.5 405.45-3.5 405.45-0.2Q404.35 0.45 402.5 0.45L402.5 0.45Q400.85 0.45 399.7-0.43 398.55-1.3 398.15-2.85L398.15-2.85 397.9-2.85Q395.65 0.6 391.45 0.6L391.45 0.6ZM392.9-3.5Q394.95-3.5 396.4-5.2 397.85-6.9 397.85-9.75L397.85-9.75 397.85-11.85Q393.85-11.85 391.68-10.85 389.5-9.85 389.5-7.15L389.5-7.15Q389.5-5.2 390.33-4.35 391.15-3.5 392.9-3.5L392.9-3.5ZM408.95 0L408.95-26.3 412.65-26.3 413.25-23.2 413.55-23.2Q414.6-25 416.25-25.95 417.9-26.9 420-26.9L420-26.9Q426.65-26.9 426.65-18.8L426.65-18.8 426.65 0 421.95 0 421.95-18.05Q421.95-20.6 421.03-21.65 420.1-22.7 418.3-22.7L418.3-22.7Q416.35-22.7 415-20.88 413.65-19.05 413.65-16.1L413.65-16.1 413.65 0 408.95 0ZM439.8 0.6Q435.9 0.6 433.72-2.8 431.55-6.2 431.55-13.2L431.55-13.2Q431.55-20.05 433.75-23.48 435.95-26.9 439.5-26.9L439.5-26.9Q441.45-26.9 442.97-26.08 444.5-25.25 445.2-23.75L445.2-23.75 445.45-23.75 445.45-36.15 450.15-36.15 450.15 0 446.45 0 445.85-3.1 445.6-3.1Q444.65-1.3 443.15-0.35 441.65 0.6 439.8 0.6L439.8 0.6ZM440.95-3.6Q443.25-3.6 444.35-5.75 445.45-7.9 445.45-12.2L445.45-12.2 445.45-13.95Q445.45-22.7 440.95-22.7L440.95-22.7Q438.65-22.7 437.57-20.65 436.5-18.6 436.5-14.1L436.5-14.1 436.5-12.2Q436.5-7.7 437.57-5.65 438.65-3.6 440.95-3.6L440.95-3.6Z" opacity="1" transform="matrix(1,0,0,1,0,0)" fill="#0074d9" class="undefined-text-1" data-fill-palette-color="secondary" id="text-1"></path></svg></g></svg></g></svg></g></svg></g><g transform="matrix(1,0,0,1,58.49705490128163,0)"><svg viewBox="0 0 128.65940699743666 68.7743011949934" height="68.7743011949934" width="128.65940699743666"><g><svg xmlns="http://www.w3.org/2000/svg" xmlns:xlink="http://www.w3.org/1999/xlink" version="1.1" x="0" y="0" viewBox="0 25.6 110 58.79999999999999" style="enable-background:new 0 0 110 110;" xml:space="preserve" height="68.7743011949934" width="128.65940699743666" class="icon-icon-0" data-fill-palette-color="accent" id="icon-0"><path d="M103.5 47.9h-97l-1.2-3.8h99.3L103.5 47.9zM107.7 77.4H2.3v2.2h105.5V77.4zM110 80.8H0v3.6h110V80.8zM13.9 49H10c-0.5 8.5-0.7 17.3-0.7 27.3h5.4C14.6 66.3 14.4 57.5 13.9 49zM26.2 49h-3.9c-0.5 8.5-0.7 17.3-0.7 27.3h5.4C26.9 66.3 26.7 57.5 26.2 49zM38.5 49h-3.9c-0.5 8.5-0.7 17.3-0.7 27.3h5.4C39.2 66.3 39 57.5 38.5 49zM50.8 49h-3.9c-0.5 8.5-0.7 17.3-0.7 27.3h5.4C51.5 66.3 51.3 57.5 50.8 49zM63.1 49h-3.9c-0.5 8.5-0.7 17.3-0.7 27.3h5.4C63.8 66.3 63.6 57.5 63.1 49zM75.4 49h-3.9c-0.5 8.5-0.7 17.3-0.7 27.3h5.4C76.1 66.3 75.9 57.5 75.4 49zM87.7 49h-3.9c-0.5 8.5-0.7 17.3-0.7 27.3h5.4C88.4 66.3 88.2 57.5 87.7 49zM100 49h-3.9c-0.5 8.5-0.7 17.3-0.7 27.3h5.4C100.7 66.3 100.5 57.5 100 49zM34 38.6v4.6h1.5v-3.1h1.9v3.1h2.7v-3.1h1.9v3.1h2.7v-3.1h1.9v3.1h2.7v-3.1h1.9v3.1H54v-3.1h1.9v3.1h2.7v-3.1h1.9v3.1h2.7v-3.1h1.9v3.1h2.7v-3.1h1.9v3.1h2.7v-3.1h1.9v3.1h1.5v-4.6H34zM74.4 37.9C71 30.6 63.6 25.6 55 25.6s-16 5-19.4 12.3H74.4z" fill="#0074d9" data-fill-palette-color="accent"></path></svg></g></svg></g><g></g></svg></g></svg></g><g><path d="M99.985 50.274A122.216 122.216 0 0 1 295.535 50.274L293.033 50.274A119.714 119.714 0 0 0 102.487 50.274L99.985 50.274M99.985 196.926A122.216 122.216 0 0 0 295.535 196.926L293.033 196.926A119.714 119.714 0 0 1 102.487 196.926L99.985 196.926" fill="#0074d9" stroke="transparent" data-fill-palette-color="tertiary"></path></g></svg></g><defs></defs></svg><rect width="395.52" height="247.2" fill="none" stroke="none" visibility="hidden"></rect></g></svg></g></svg>