<svg xmlns="http://www.w3.org/2000/svg" version="1.1" xmlns:xlink="http://www.w3.org/1999/xlink" xmlns:svgjs="http://svgjs.dev/svgjs" width="1000" height="1000" viewBox="0 0 1000 1000"><rect width="1000" height="1000" fill="#000000"></rect><g transform="matrix(0.7,0,0,0.7,149.65000000000003,149.65000000000003)"><svg viewBox="0 0 280 280" data-background-color="#ffffff" preserveAspectRatio="xMidYMid meet" height="1000" width="1000" xmlns="http://www.w3.org/2000/svg" xmlns:xlink="http://www.w3.org/1999/xlink"><g id="tight-bounds" transform="matrix(1,0,0,1,0.13999999999998636,0.13999999999998636)"><svg viewBox="0 0 279.72 279.72" height="279.72" width="279.72"><g><svg viewBox="0 0 279.72 279.72" height="279.72" width="279.72"><g><svg viewBox="0 0 279.72 279.72" height="279.72" width="279.72"><g id="textblocktransform"><svg viewBox="0 0 279.72 279.72" height="279.72" width="279.72" id="textblock"><g><svg viewBox="0 0 279.72 279.72" height="279.72" width="279.72"><g transform="matrix(1,0,0,1,123.01653471965984,90.41202279162474)"><svg viewBox="0 0 33.68693056068034 98.89595441675056" height="98.89595441675056" width="33.68693056068034"><g><svg xmlns="http://www.w3.org/2000/svg" xmlns:xlink="http://www.w3.org/1999/xlink" version="1.1" x="0" y="0" viewBox="33.488 1.0750000000000006 33.316 97.807" enable-background="new 0 0 100 100" xml:space="preserve" height="98.89595441675056" width="33.68693056068034" class="icon-wg-0" data-fill-palette-color="accent" id="wg-0"><g fill="#3d9970" data-fill-palette-color="accent"><g fill="#3d9970" data-fill-palette-color="accent"><rect x="33.488" y="95.938" width="33.316" height="2.944" fill="#ffffff" data-fill-palette-color="accent"></rect><path d="M35.356 64.354v30.107h29.601V64.354H35.356zM44.314 92.409h-4.288v-22.62c0-0.735 0.157-1.338 0.352-1.338h3.581c0.195 0 0.355 0.603 0.355 1.338V92.409zM52.302 92.409h-4.286v-22.62c0-0.735 0.154-1.338 0.349-1.338h3.584c0.195 0 0.354 0.603 0.354 1.338V92.409zM60.29 92.409h-4.286v-22.62c0-0.735 0.155-1.338 0.354-1.338h3.582c0.193 0 0.351 0.603 0.351 1.338V92.409z" fill="#ffffff" data-fill-palette-color="accent"></path><path d="M36.977 31.235v31.801h26.34V31.235H36.977zM44.314 60.154h-4.288V36.342c0-0.779 0.157-1.414 0.352-1.414h3.581c0.195 0 0.355 0.635 0.355 1.414V60.154zM52.302 60.154h-4.286V36.342c0-0.779 0.154-1.414 0.349-1.414h3.584c0.195 0 0.354 0.635 0.354 1.414V60.154zM60.29 60.154h-4.286V36.342c0-0.779 0.155-1.414 0.354-1.414h3.582c0.193 0 0.351 0.635 0.351 1.414V60.154z" fill="#ffffff" data-fill-palette-color="accent"></path><path d="M39.077 9.546v20.552h22.16V9.546H39.077zM48.308 28.077H44.02V12.49c0-0.503 0.16-0.924 0.351-0.924h3.583c0.196 0 0.354 0.421 0.354 0.924V28.077zM56.295 28.077H52.01V12.49c0-0.503 0.157-0.924 0.352-0.924h3.584c0.192 0 0.35 0.421 0.35 0.924V28.077z" fill="#ffffff" data-fill-palette-color="accent"></path><path d="M60 5h-6.315c0.021 0 0.047-0.22 0.047-0.379 0-1.986-1.605-3.546-3.584-3.546-1.98 0-3.585 1.538-3.585 3.524 0 0.159 0.027 0.4 0.047 0.4H40v3h9.094c0.335 0 0.684 0.176 1.053 0.176C50.516 8.176 50.865 8 51.2 8H60V5z" fill="#ffffff" data-fill-palette-color="accent"></path></g></g></svg></g></svg></g><g><path d="M17.265 200.026L16.632 200.253 14.056 193.045 14.689 192.819 15.507 195.108 21.41 190.225 18.645 182.487 10.984 182.452 11.802 184.741 11.169 184.967 9.272 179.661 9.906 179.434 10.369 180.73C10.486 181.058 10.73 181.223 11.101 181.226V181.226L34.871 181.446 35.3 182.647 17.054 197.883C16.767 198.114 16.682 198.393 16.799 198.721V198.721ZM22.269 189.523L30.616 182.614 19.767 182.523ZM36.881 189.8L37.462 189.481 40.867 195.69 40.286 196.009 39.393 194.38 26.347 208.465 45.314 205.178 44.416 203.539 44.997 203.221 47.436 207.668 46.855 207.987 46.193 206.78C46.026 206.475 45.759 206.35 45.392 206.406V206.406L22.146 210.436 21.533 209.317 37.428 191.883C37.672 191.604 37.71 191.312 37.543 191.006V191.006ZM42.768 239.241V239.241C41.639 238.051 40.835 236.552 40.356 234.744V234.744C40.177 234.157 40.019 233.791 39.881 233.645V233.645C39.627 233.378 39.302 233.414 38.904 233.754V233.754L38.498 234.085 38.014 233.575 42.531 229.287 42.994 229.776C41.757 231.254 41.226 232.742 41.4 234.239 41.569 235.74 42.223 237.09 43.362 238.29 44.505 239.495 45.697 240.099 46.938 240.103 48.179 240.107 49.241 239.689 50.125 238.85V238.85C51.529 237.518 51.823 235.697 51.007 233.388V233.388L49.379 228.798C48.889 227.417 48.785 226.126 49.068 224.925 49.355 223.729 49.933 222.719 50.802 221.894V221.894C52.119 220.644 53.67 220.012 55.456 219.997 57.242 219.982 58.924 220.806 60.5 222.467V222.467C61.427 223.443 62.051 224.752 62.373 226.395V226.395C62.501 226.929 62.625 227.259 62.745 227.385V227.385C62.966 227.618 63.276 227.565 63.673 227.225V227.225L64.247 226.735 64.731 227.245 60.046 231.692 59.583 231.203C60.838 229.744 61.442 228.327 61.392 226.952 61.333 225.577 60.794 224.353 59.776 223.279 58.757 222.206 57.679 221.654 56.543 221.624 55.398 221.595 54.451 221.935 53.703 222.644 52.95 223.359 52.469 224.199 52.259 225.165 52.049 226.14 52.149 227.184 52.561 228.299V228.299L54.21 232.911C54.752 234.455 54.89 235.875 54.624 237.17 54.363 238.471 53.783 239.547 52.884 240.4V240.4C51.602 241.617 50.003 242.156 48.089 242.016 46.169 241.88 44.396 240.956 42.768 239.241ZM78.549 239.237L74.669 236.392 62.044 253.603C61.87 253.841 61.923 254.062 62.204 254.268V254.268L64.82 256.187 64.422 256.73 55.877 250.462 56.275 249.919 58.891 251.838C59.172 252.044 59.399 252.028 59.574 251.791V251.791L72.199 234.579 68.319 231.734C67.801 231.353 67.359 231.366 66.995 231.772V231.772L63.957 234.962 63.269 234.457 64.309 233.04C65.604 231.274 66.463 229.916 66.887 228.964V228.964C67.39 229.615 68.435 230.523 70.022 231.687V231.687L78.089 237.605C79.671 238.765 80.851 239.489 81.628 239.777V239.777C80.848 240.467 79.81 241.695 78.515 243.461V243.461L77.475 244.878 76.779 244.367 78.91 240.511C79.193 240.046 79.072 239.622 78.549 239.237ZM89.771 269.558L89.473 270.161 82.612 266.767 82.911 266.164 85.089 267.242 85.942 259.628 78.577 255.985 73.043 261.283 75.222 262.361 74.923 262.964 69.872 260.465 70.171 259.862 71.404 260.472C71.716 260.627 72.006 260.576 72.275 260.32V260.32L89.522 243.962 90.666 244.528 88.13 268.163C88.084 268.529 88.217 268.789 88.529 268.943V268.943ZM86.072 258.527L87.275 247.759 79.409 255.231ZM113.293 254.148L108.688 252.752 102.498 273.18C102.412 273.462 102.536 273.654 102.869 273.755V273.755L105.974 274.696 105.779 275.34 95.637 272.266 95.832 271.622 98.937 272.563C99.271 272.664 99.48 272.574 99.566 272.292V272.292L105.756 251.864 101.151 250.468C100.536 250.282 100.124 250.44 99.915 250.944V250.944L98.11 254.963 97.293 254.715 97.803 253.033C98.438 250.937 98.797 249.37 98.881 248.332V248.332C99.571 248.779 100.858 249.288 102.742 249.859V249.859L112.317 252.76C114.195 253.329 115.548 253.62 116.377 253.634V253.634C115.87 254.544 115.299 256.047 114.664 258.142V258.142L114.154 259.825 113.327 259.574 114.056 255.229C114.169 254.696 113.914 254.336 113.293 254.148ZM122.39 278.997V278.997C120.765 278.769 119.202 278.097 117.702 276.98V276.98C117.197 276.632 116.844 276.444 116.645 276.416V276.416C116.281 276.365 116.049 276.596 115.95 277.11V277.11L115.837 277.622 115.141 277.524 116.006 271.357 116.672 271.45C116.625 273.377 117.136 274.872 118.204 275.935 119.271 277.004 120.624 277.654 122.262 277.884 123.906 278.114 125.216 277.845 126.189 277.075 127.162 276.306 127.734 275.317 127.903 274.11V274.11C128.172 272.194 127.268 270.586 125.192 269.287V269.287L121.06 266.71C119.816 265.934 118.931 264.988 118.404 263.873 117.885 262.758 117.708 261.608 117.874 260.421V260.421C118.126 258.623 118.946 257.163 120.335 256.039 121.723 254.915 123.551 254.512 125.819 254.83V254.83C127.152 255.017 128.456 255.653 129.731 256.738V256.738C130.163 257.076 130.466 257.257 130.638 257.281V257.281C130.957 257.326 131.165 257.091 131.264 256.578V256.578L131.409 255.837 132.105 255.935 131.208 262.331 130.542 262.238C130.615 260.314 130.205 258.83 129.31 257.784 128.408 256.745 127.224 256.123 125.758 255.917 124.292 255.711 123.106 255.951 122.199 256.635 121.284 257.325 120.755 258.181 120.611 259.202 120.467 260.23 120.614 261.187 121.051 262.073 121.493 262.967 122.222 263.722 123.238 264.337V264.337L127.4 266.919C128.786 267.79 129.778 268.815 130.377 269.994 130.982 271.175 131.199 272.378 131.027 273.605V273.605C130.781 275.356 129.866 276.773 128.281 277.855 126.694 278.945 124.731 279.325 122.39 278.997ZM139.157 278.432V278.432L138.289 257.255C138.277 256.954 138.097 256.811 137.749 256.825V256.825L135.992 256.897 135.965 256.235 143.573 255.923 143.6 256.585 141.843 256.657C141.496 256.672 141.328 256.829 141.34 257.13V257.13L142.208 278.307C142.222 278.655 142.403 278.822 142.751 278.808V278.808L144.508 278.736 144.535 279.408 136.927 279.72 136.9 279.048 138.656 278.976C139.004 278.961 139.171 278.78 139.157 278.432ZM150.721 272.62V272.62L151.715 276.018C152.153 277.541 152.78 278.286 153.596 278.253V278.253C154.024 278.235 154.349 278.068 154.571 277.75 154.792 277.426 154.894 277.047 154.876 276.612 154.858 276.177 154.805 275.774 154.716 275.402V275.402L155.424 275.262C155.533 275.633 155.597 276.043 155.615 276.491V276.491C155.652 277.388 155.416 278.108 154.909 278.651 154.395 279.195 153.713 279.485 152.864 279.519V279.519C150.776 279.605 149.357 278.329 148.605 275.693V275.693L147.601 272.296C147.114 270.7 146.486 269.6 145.717 268.995 144.941 268.39 143.871 268.115 142.506 268.171V268.171L142.473 267.358 150.836 256.289 148.969 256.365 148.942 255.703 154.011 255.495 154.038 256.158 153.034 256.199C152.633 256.215 152.292 256.404 152.012 256.764V256.764L144.076 267.212C145.99 267.161 147.454 267.624 148.465 268.601 149.471 269.585 150.223 270.925 150.721 272.62ZM180.463 272.712L180.617 273.367 173.168 275.124 173.013 274.469 175.379 273.911 171.184 267.5 163.187 269.386 162.298 276.995 164.664 276.437 164.818 277.093 159.334 278.386 159.179 277.731 160.519 277.415C160.857 277.335 161.049 277.111 161.093 276.743V276.743L163.96 253.145 165.202 252.853 178.31 272.683C178.507 272.994 178.775 273.11 179.114 273.03V273.03ZM170.583 266.569L164.647 257.504 163.348 268.275ZM202.392 264.16L201.298 264.642 180.06 251.246 187.975 269.207C188.116 269.526 188.345 269.615 188.664 269.475V269.475L190.273 268.766 190.544 269.382 185.213 271.731 184.941 271.115 186.55 270.406C186.868 270.266 186.958 270.036 186.817 269.718V269.718L178.27 250.323C178.149 250.047 177.929 249.979 177.61 250.12V250.12L176.001 250.829 175.734 250.222 180.753 248.01 198.908 259.417 192.224 244.25C192.084 243.932 191.854 243.843 191.536 243.983V243.983L189.936 244.688 189.669 244.081 194.991 241.736 195.258 242.343 193.659 243.047C193.34 243.188 193.242 243.396 193.363 243.672V243.672ZM216.723 255.81V255.81C215.366 256.732 213.757 257.283 211.895 257.462V257.462C211.287 257.544 210.9 257.641 210.733 257.754V257.754C210.429 257.961 210.412 258.288 210.683 258.735V258.735L210.944 259.19 210.362 259.585 206.863 254.433 207.419 254.055C208.678 255.515 210.06 256.28 211.565 256.351 213.074 256.427 214.513 256 215.881 255.071 217.255 254.138 218.044 253.059 218.249 251.835 218.454 250.611 218.214 249.495 217.529 248.487V248.487C216.441 246.886 214.692 246.301 212.281 246.733V246.733L207.488 247.596C206.046 247.856 204.755 247.749 203.616 247.276 202.482 246.799 201.579 246.065 200.905 245.074V245.074C199.886 243.573 199.513 241.939 199.787 240.174 200.062 238.409 201.146 236.883 203.041 235.597V235.597C204.154 234.84 205.547 234.436 207.22 234.385V234.385C207.768 234.344 208.114 234.276 208.258 234.178V234.178C208.524 233.997 208.521 233.683 208.25 233.236V233.236L207.859 232.59 208.441 232.195 212.07 237.538 211.514 237.916C210.277 236.441 208.976 235.616 207.611 235.443 206.245 235.278 204.949 235.612 203.725 236.443 202.501 237.275 201.782 238.249 201.569 239.365 201.354 240.491 201.536 241.48 202.116 242.333 202.699 243.192 203.45 243.803 204.369 244.166 205.297 244.531 206.344 244.601 207.511 244.376V244.376L212.328 243.495C213.94 243.21 215.363 243.303 216.599 243.776 217.84 244.244 218.809 244.991 219.505 246.015V246.015C220.498 247.478 220.771 249.142 220.323 251.009 219.878 252.881 218.679 254.482 216.723 255.81ZM236.163 238.763L227.92 246.669 227.454 246.183 228.723 244.966C228.974 244.725 228.979 244.479 228.738 244.228V244.228L214.067 228.931C213.859 228.714 213.629 228.725 213.378 228.967V228.967L212.109 230.183 211.65 229.705 217.145 224.435 217.604 224.913 216.335 226.13C216.084 226.371 216.063 226.6 216.271 226.818V226.818L231.046 242.223 236.411 237.078C236.875 236.633 236.936 236.194 236.595 235.76V235.76L233.976 232.232 234.599 231.634 235.809 232.895C237.325 234.475 238.515 235.556 239.379 236.138V236.138C238.651 236.53 237.579 237.405 236.162 238.763ZM242.738 229.727V229.727L226.321 216.322C226.087 216.132 225.86 216.171 225.64 216.441V216.441L224.528 217.802 224.015 217.383 228.831 211.486 229.344 211.905 228.232 213.266C228.012 213.536 228.019 213.766 228.252 213.957V213.957L244.669 227.362C244.939 227.582 245.184 227.557 245.404 227.288V227.288L246.516 225.926 247.037 226.352 242.221 232.249 241.7 231.824 242.812 230.462C243.032 230.192 243.007 229.947 242.738 229.727ZM256.999 210.715L250.548 221.252 249.974 220.9 250.892 219.401C251.073 219.104 251.016 218.865 250.719 218.683V218.683L232.643 207.616C232.386 207.459 232.167 207.529 231.985 207.826V207.826L231.067 209.325 230.502 208.978 236.68 198.887C237.705 197.214 238.328 195.978 238.55 195.179V195.179C239.303 195.899 240.456 196.735 242.009 197.686V197.686L243.5 198.598 243.049 199.335 239.508 197.827C239.021 197.584 238.608 197.739 238.269 198.293V198.293L234.178 204.975 242.864 210.293 246.782 203.894C246.94 203.637 246.882 203.398 246.61 203.176V203.176L244.73 201.802 245.076 201.236 250.808 204.745 250.461 205.31 248.391 204.267C248.07 204.125 247.831 204.183 247.673 204.44V204.44L243.755 210.839 252.442 216.157 256.806 209.03C257.145 208.476 257.093 208.036 256.649 207.709V207.709L253.224 204.953 253.676 204.216 255.166 205.129C257.034 206.272 258.459 207.015 259.443 207.358V207.358C258.838 207.923 258.024 209.041 256.999 210.715ZM246.217 179.539L244.475 184.024 264.372 191.751C264.647 191.858 264.847 191.749 264.974 191.424V191.424L266.148 188.4 266.775 188.643 262.939 198.522 262.312 198.278 263.486 195.254C263.612 194.929 263.538 194.713 263.263 194.607V194.607L243.366 186.88 241.624 191.365C241.391 191.964 241.518 192.387 242.004 192.633V192.633L245.874 194.739 245.565 195.535 243.926 194.899C241.885 194.106 240.35 193.629 239.321 193.466V193.466C239.819 192.812 240.425 191.567 241.137 189.732V189.732L244.759 180.406C245.47 178.577 245.863 177.25 245.939 176.424V176.424C246.808 176.999 248.263 177.682 250.304 178.475V178.475L251.943 179.111 251.63 179.917 247.353 178.859C246.831 178.707 246.452 178.933 246.217 179.539Z" fill="#ffffff" data-fill-palette-color="secondary"></path><path d="M2.797 102.947L2.162 104.821 1.448 104.579 5.641 92.212C6.35 90.12 6.728 88.607 6.775 87.676V87.676C7.785 88.287 9.256 88.92 11.191 89.576V89.576L13.055 90.208 12.746 91.121 8.493 90.337C7.89 90.196 7.473 90.468 7.241 91.153V91.153L4.49 99.268 15.344 102.948 17.998 95.118C18.089 94.852 17.956 94.627 17.601 94.443V94.443L15.202 93.417 15.447 92.694 22.61 95.123 22.365 95.846 19.828 95.198C19.44 95.13 19.202 95.229 19.111 95.496V95.496L16.457 103.325 27.15 106.95C27.524 107.077 27.773 106.956 27.898 106.588V106.588L29.072 103.125 29.786 103.367 26.496 113.071 25.783 112.829 26.418 110.955C26.543 110.587 26.418 110.34 26.044 110.213V110.213L3.46 102.557C3.143 102.449 2.922 102.579 2.797 102.947ZM33.725 90.378V90.378L12.444 79.618C12.145 79.467 11.908 79.565 11.733 79.912V79.912L10.84 81.678 10.168 81.338 14.034 73.691 14.706 74.031 13.813 75.797C13.638 76.144 13.7 76.393 13.999 76.544V76.544L35.279 87.303C35.632 87.482 35.896 87.398 36.071 87.051V87.051L36.964 85.285 37.636 85.625 33.77 93.271 33.098 92.931 33.991 91.165C34.166 90.819 34.077 90.556 33.725 90.378ZM52.532 65.202L51.726 66.281 23.509 64.924 41.203 78.13C41.52 78.367 41.796 78.326 42.032 78.01V78.01L43.21 76.432 43.814 76.883 39.896 82.131 39.293 81.68 40.476 80.095C40.709 79.783 40.666 79.51 40.35 79.273V79.273L21.239 65.01C20.971 64.81 20.721 64.865 20.488 65.176V65.176L19.305 66.762 18.701 66.312 22.396 61.361 46.494 62.476 31.562 51.331C31.245 51.095 30.969 51.135 30.732 51.451V51.451L29.555 53.029 28.951 52.578 32.868 47.33 33.472 47.781 32.288 49.366C32.056 49.678 32.074 49.933 32.342 50.134V50.134ZM73.577 45.843L74.059 46.422 67.452 51.925 66.97 51.346 69.062 49.604 61.62 45.252 54.519 51.167 57.453 59.273 59.545 57.53 60.027 58.109 55.157 62.166 54.675 61.587 55.871 60.59C56.169 60.342 56.246 60.021 56.102 59.627V59.627L47.137 34.425 48.233 33.512 71.391 46.892C71.752 47.106 72.085 47.086 72.388 46.833V46.833ZM60.544 44.619L50.013 38.474 54.122 49.968ZM94.378 35.544L93.189 36.175 68.26 22.886 78.61 42.389C78.795 42.738 79.062 42.82 79.411 42.634V42.634L81.15 41.711 81.504 42.377 75.719 45.447 75.365 44.782 77.113 43.854C77.456 43.672 77.535 43.406 77.35 43.057V43.057L66.171 21.993C66.014 21.698 65.764 21.641 65.421 21.823V21.823L63.673 22.751 63.32 22.085 68.777 19.189 90.085 30.499 81.351 14.04C81.165 13.691 80.898 13.609 80.549 13.794V13.794L78.81 14.717 78.457 14.052 84.242 10.982 84.595 11.647 82.847 12.575C82.504 12.757 82.411 12.996 82.568 13.292V13.292ZM108.869 31.322V31.322C107.094 31.837 105.179 31.87 103.124 31.421V31.421C102.447 31.297 101.999 31.266 101.78 31.33V31.33C101.381 31.445 101.25 31.787 101.387 32.354V32.354L101.504 32.937 100.742 33.158 98.787 26.425 99.511 26.215C100.356 28.215 101.574 29.514 103.163 30.112 104.748 30.719 106.434 30.763 108.222 30.244 110.01 29.725 111.226 28.846 111.87 27.606 112.522 26.37 112.657 25.093 112.274 23.775V23.775C111.666 21.679 109.993 20.445 107.257 20.075V20.075L101.841 19.325C100.201 19.104 98.856 18.543 97.806 17.641 96.761 16.731 96.052 15.633 95.678 14.347V14.347C95.109 12.386 95.275 10.507 96.176 8.711 97.086 6.92 98.778 5.665 101.254 4.946V4.946C102.701 4.526 104.333 4.576 106.15 5.094V5.094C106.744 5.242 107.134 5.289 107.321 5.235V5.235C107.675 5.133 107.782 4.795 107.644 4.221V4.221L107.45 3.409 108.212 3.188 110.237 10.163 109.513 10.373C108.7 8.363 107.591 7.029 106.186 6.37 104.79 5.716 103.291 5.621 101.69 6.086 100.088 6.551 98.98 7.346 98.366 8.473 97.745 9.602 97.597 10.722 97.92 11.835 98.243 12.947 98.835 13.859 99.697 14.571 100.559 15.283 101.657 15.725 102.99 15.896V15.896L108.441 16.625C110.266 16.883 111.761 17.478 112.924 18.409 114.08 19.342 114.853 20.481 115.244 21.825V21.825C115.796 23.729 115.511 25.604 114.387 27.45 113.262 29.29 111.422 30.581 108.869 31.322ZM123.669 26.423V26.423L121.791 2.651C121.764 2.317 121.557 2.165 121.17 2.196V2.196L119.198 2.352 119.138 1.601 127.68 0.926 127.739 1.677 125.766 1.833C125.379 1.863 125.199 2.046 125.225 2.379V2.379L127.104 26.152C127.135 26.546 127.344 26.727 127.731 26.697V26.697L129.704 26.541 129.763 27.292 121.222 27.967 121.162 27.216 123.135 27.06C123.522 27.029 123.7 26.817 123.669 26.423ZM136.425 19.4V19.4L137.69 23.169C138.247 24.865 138.986 25.676 139.908 25.603V25.603C140.382 25.566 140.738 25.363 140.978 24.995 141.211 24.627 141.308 24.2 141.27 23.712 141.231 23.218 141.155 22.767 141.042 22.36V22.36L141.823 22.167C141.969 22.579 142.063 23.035 142.102 23.536V23.536C142.182 24.544 141.944 25.362 141.389 25.99 140.835 26.625 140.084 26.98 139.136 27.055V27.055C136.793 27.24 135.139 25.869 134.176 22.943V22.943L132.91 19.164C132.293 17.392 131.539 16.182 130.648 15.534 129.751 14.892 128.535 14.632 126.999 14.754V14.754L126.926 13.833 135.86 1.035 133.767 1.201 133.708 0.45 139.396 0 139.455 0.751 138.324 0.84C137.883 0.875 137.508 1.103 137.199 1.524V1.524L128.722 13.6C130.873 13.457 132.539 13.916 133.718 14.979 134.896 16.034 135.798 17.508 136.425 19.4ZM167.198 28.984L167.096 29.73 158.576 28.565 158.679 27.818 161.376 28.187 159.568 19.758 150.412 18.506 146.408 26.14 149.105 26.509 149.002 27.255 142.723 26.396 142.825 25.65 144.367 25.861C144.752 25.913 145.041 25.753 145.234 25.381V25.381L157.792 1.763 159.205 1.956 164.949 28.078C165.035 28.488 165.274 28.72 165.665 28.774V28.774ZM159.309 18.537L156.743 6.618 151.029 17.404ZM188.825 37.4L187.558 36.948 180.563 9.578 173.139 30.371C173.006 30.743 173.126 30.995 173.498 31.128V31.128L175.352 31.79 175.099 32.5 168.931 30.297 169.184 29.588 171.048 30.253C171.414 30.384 171.663 30.263 171.796 29.891V29.891L179.814 7.433C179.927 7.118 179.8 6.895 179.434 6.764V6.764L177.571 6.099 177.824 5.389 183.642 7.466 189.657 30.828 195.922 13.28C196.055 12.908 195.936 12.656 195.564 12.523V12.523L193.709 11.861 193.963 11.151 200.131 13.353 199.877 14.063 198.014 13.397C197.648 13.267 197.409 13.359 197.296 13.675V13.675ZM201.719 45.253V45.253C200.142 44.29 198.826 42.898 197.771 41.078V41.078C197.406 40.494 197.126 40.143 196.932 40.024V40.024C196.577 39.808 196.237 39.941 195.91 40.425V40.425L195.559 40.904 194.882 40.491 198.534 34.506 199.177 34.899C198.271 36.872 198.133 38.647 198.763 40.224 199.384 41.803 200.489 43.078 202.078 44.048 203.667 45.018 205.137 45.322 206.486 44.961 207.839 44.61 208.872 43.848 209.587 42.676V42.676C210.725 40.813 210.507 38.746 208.935 36.477V36.477L205.835 31.972C204.892 30.612 204.4 29.241 204.357 27.858 204.324 26.472 204.657 25.208 205.354 24.065V24.065C206.418 22.321 207.917 21.177 209.851 20.631 211.787 20.094 213.855 20.498 216.056 21.841V21.841C217.342 22.626 218.406 23.864 219.249 25.555V25.555C219.54 26.094 219.768 26.414 219.934 26.515V26.515C220.249 26.707 220.571 26.558 220.901 26.069V26.069L221.369 25.378 222.046 25.792 218.263 31.991 217.62 31.598C218.555 29.642 218.792 27.924 218.331 26.442 217.872 24.97 216.931 23.799 215.508 22.931 214.085 22.062 212.75 21.781 211.504 22.087 210.252 22.39 209.324 23.036 208.721 24.025 208.117 25.014 207.843 26.067 207.899 27.183 207.955 28.3 208.369 29.408 209.142 30.507V30.507L212.281 35.024C213.322 36.545 213.89 38.05 213.987 39.537 214.078 41.02 213.759 42.359 213.03 43.554V43.554C211.997 45.246 210.42 46.299 208.299 46.715 206.182 47.125 203.988 46.638 201.719 45.253ZM222.153 60.821L212.642 52.185 213.148 51.627 214.613 52.957C214.901 53.219 215.177 53.203 215.443 52.91V52.91L231.473 35.256C231.698 35.008 231.667 34.753 231.379 34.492V34.492L229.914 33.162 230.421 32.604 236.764 38.364 236.258 38.922 234.793 37.592C234.505 37.33 234.249 37.324 234.024 37.572V37.572L217.879 55.353 224.066 60.971C224.601 61.457 225.099 61.492 225.557 61.077V61.077L229.32 57.859 230.042 58.514 228.718 59.971C227.062 61.796 225.938 63.218 225.347 64.237V64.237C224.854 63.445 223.789 62.307 222.153 60.821ZM230.166 67.425V67.425L248.462 52.131C248.719 51.916 248.723 51.66 248.474 51.362V51.362L247.205 49.843 247.783 49.36 253.278 55.934 252.7 56.418 251.431 54.899C251.182 54.601 250.929 54.56 250.672 54.774V54.774L232.376 70.068C232.073 70.321 232.046 70.597 232.295 70.895V70.895L233.564 72.413 232.986 72.897 227.491 66.323 228.069 65.839 229.338 67.358C229.587 67.656 229.863 67.678 230.166 67.425ZM242.61 88.4L235.422 76.501 236.067 76.111 237.09 77.805C237.291 78.137 237.561 78.202 237.899 77.997V77.997L258.311 65.668C258.597 65.495 258.64 65.242 258.439 64.91V64.91L257.416 63.216 258.061 62.826 264.942 74.219C266.085 76.11 266.997 77.374 267.679 78.011V78.011C266.565 78.394 265.134 79.114 263.386 80.17V80.17L261.7 81.188 261.197 80.354 264.537 77.609C265.033 77.238 265.095 76.744 264.721 76.125V76.125L260.161 68.576 250.35 74.501 254.713 81.724C254.886 82.01 255.157 82.077 255.527 81.925V81.925L257.863 80.76 258.252 81.405 251.778 85.316 251.388 84.671 253.515 83.14C253.816 82.887 253.88 82.618 253.707 82.331V82.331L249.344 75.109 239.534 81.035 244.395 89.083C244.773 89.707 245.239 89.883 245.794 89.611V89.611L250.325 87.613 250.824 88.438 249.139 89.456C247.029 90.73 245.548 91.774 244.693 92.587V92.587C244.447 91.688 243.753 90.292 242.61 88.4ZM275.749 102.967L273.936 97.866 251.305 105.908C250.989 106.02 250.898 106.262 251.03 106.635V106.635L252.251 110.07 251.541 110.323 247.549 99.088 248.259 98.835 249.483 102.281C249.615 102.653 249.839 102.783 250.155 102.671V102.671L272.785 94.629 270.969 89.518C270.727 88.836 270.305 88.57 269.705 88.72V88.72L264.868 89.778 264.545 88.869 266.409 88.206C268.725 87.383 270.383 86.659 271.383 86.034V86.034C271.444 86.964 271.844 88.471 272.584 90.553V90.553L276.351 101.154C277.091 103.236 277.732 104.658 278.272 105.418V105.418C277.101 105.564 275.358 106.048 273.042 106.871V106.871L271.178 107.534 270.855 106.625 275.271 104.384C275.834 104.127 275.993 103.655 275.749 102.967Z" fill="#ffffff" data-fill-palette-color="primary"></path><path d="M2.767 144.345C2.767 138.659 7.376 134.05 13.062 134.05 18.747 134.05 23.356 138.659 23.356 144.345 23.356 150.031 18.747 154.64 13.062 154.64 7.376 154.64 2.767 150.031 2.767 144.345ZM255.649 144.345C255.649 138.659 260.258 134.05 265.943 134.05 271.629 134.05 276.238 138.659 276.238 144.345 276.238 150.031 271.629 154.64 265.943 154.64 260.258 154.64 255.649 150.031 255.649 144.345Z" fill="#ffffff" data-fill-palette-color="primary"></path></g></svg></g></svg></g></svg></g><g></g></svg></g><defs></defs></svg><rect width="279.72" height="279.72" fill="none" stroke="none" visibility="hidden"></rect></g></svg></g></svg>