<svg xmlns="http://www.w3.org/2000/svg" version="1.1" xmlns:xlink="http://www.w3.org/1999/xlink" xmlns:svgjs="http://svgjs.dev/svgjs" width="1000" height="1000" viewBox="0 0 1000 1000"><rect width="1000" height="1000" fill="#ffffff"></rect><g transform="matrix(0.7,0,0,0.7,150,150)"><svg viewBox="0 0 280 280" data-background-color="#ffffff" preserveAspectRatio="xMidYMid meet" height="1000" width="1000" xmlns="http://www.w3.org/2000/svg" xmlns:xlink="http://www.w3.org/1999/xlink"><g id="tight-bounds" transform="matrix(1,0,0,1,0,0)"><svg viewBox="0 0 280 280" height="280" width="280"><g><svg viewBox="0 0 280 280" height="280" width="280"><g transform="matrix(1,0,0,1,60.80404050710668,100.40371679787015)"><svg viewBox="0 0 158.39191898578665 79.19256640425972" height="79.19256640425972" width="158.39191898578665"><g><svg viewBox="0 0 159.18387858071557 79.58852923628102" height="79.19256640425972" width="158.39191898578665"><g><rect width="159.18387858071557" height="1.4530566419890347" x="0" y="44.72299180660054" fill="#000000" opacity="1" stroke-width="0" stroke="transparent" fill-opacity="1" class="rect-o-0" data-fill-palette-color="secondary" rx="1%" id="o-0" data-palette-color="#332885"></rect></g><g transform="matrix(1,0,0,1,0.395979797464463,49.97986164751375)"><svg viewBox="0 0 158.39191898578665 29.60866758876727" height="29.60866758876727" width="158.39191898578665"><g id="textblocktransform"><svg viewBox="0 0 158.39191898578665 29.60866758876727" height="29.60866758876727" width="158.39191898578665" id="textblock"><g><svg viewBox="0 0 158.39191898578665 16.112663713906432" height="16.112663713906432" width="158.39191898578665"><g transform="matrix(1,0,0,1,0,0)"><svg width="158.39191898578665" viewBox="2.5 -32.099998474121094 321.4200134277344 32.69999694824219" height="16.112663713906432" data-palette-color="#332885"><path d="M12.4 0.6L12.4 0.6Q9.1 0.6 5.8-1.2L5.8-1.2Q4.7-1.75 4.3-1.75L4.3-1.75Q3.55-1.75 3.5-0.7L3.5-0.7 3.45 0 2.5 0 2.5-8.35 3.4-8.35Q3.85-4.5 6.28-2.68 8.7-0.85 12.03-0.85 15.35-0.85 17.07-2.65 18.8-4.45 18.8-6.9L18.8-6.9Q18.8-10.8 14.3-12.8L14.3-12.8 8.35-15.45Q5.65-16.65 4.3-18.73 2.95-20.8 2.95-23.2L2.95-23.2Q2.95-26.85 5.4-29.48 7.85-32.1 12.45-32.1L12.45-32.1Q15.15-32.1 18-30.3L18-30.3Q18.95-29.75 19.3-29.75L19.3-29.75Q19.95-29.75 20-30.8L20-30.8 20.05-31.8 21-31.8 21-23.15 20.1-23.15Q19.7-27 17.63-28.83 15.55-30.65 12.58-30.65 9.6-30.65 7.98-29.03 6.35-27.4 6.35-25.33 6.35-23.25 7.48-21.6 8.6-19.95 10.8-19L10.8-19 16.8-16.35Q19.8-15 21.33-12.83 22.85-10.65 22.85-8.15L22.85-8.15Q22.85-4.6 20-2 17.15 0.6 12.4 0.6ZM45.85-30.1L39.4-30.1 39.4-1.5Q39.4-0.9 40.1-0.9L40.1-0.9 44.45-0.9 44.45 0 30.25 0 30.25-0.9 34.6-0.9Q35.3-0.9 35.3-1.5L35.3-1.5 35.3-30.1 28.85-30.1Q27.55-30.1 27.45-29L27.45-29 26.7-23.15 25.55-23.15 25.55-25.5Q25.55-29.9 25.1-31.95L25.1-31.95Q26.7-31.5 30.65-31.5L30.65-31.5 44.05-31.5Q48-31.5 49.6-31.95L49.6-31.95Q49.15-29.9 49.15-25.5L49.15-25.5 49.15-23.15 48-23.15 47.25-29Q47.15-30.1 45.85-30.1L45.85-30.1ZM77.39-0.9L77.39 0 67.14 0 67.14-0.9 70.39-0.9 66.89-10.55 55.89-10.55 52.39-0.9 55.64-0.9 55.64 0 48.09 0 48.09-0.9 49.95-0.9Q50.64-0.9 50.89-1.6L50.89-1.6 61.89-31.5 63.59-31.5 74.59-1.6Q74.84-0.9 75.55-0.9L75.55-0.9 77.39-0.9ZM66.39-11.95L61.45-25.6 56.45-11.95 66.39-11.95ZM96.64-30.1L90.19-30.1 90.19-1.5Q90.19-0.9 90.89-0.9L90.89-0.9 95.24-0.9 95.24 0 81.04 0 81.04-0.9 85.39-0.9Q86.09-0.9 86.09-1.5L86.09-1.5 86.09-30.1 79.64-30.1Q78.34-30.1 78.24-29L78.24-29 77.49-23.15 76.34-23.15 76.34-25.5Q76.34-29.9 75.89-31.95L75.89-31.95Q77.49-31.5 81.44-31.5L81.44-31.5 94.84-31.5Q98.79-31.5 100.39-31.95L100.39-31.95Q99.94-29.9 99.94-25.5L99.94-25.5 99.94-23.15 98.79-23.15 98.04-29Q97.94-30.1 96.64-30.1L96.64-30.1ZM113.04 0.6L113.04 0.6Q109.74 0.6 106.44-1.2L106.44-1.2Q105.34-1.75 104.94-1.75L104.94-1.75Q104.19-1.75 104.14-0.7L104.14-0.7 104.09 0 103.14 0 103.14-8.35 104.04-8.35Q104.49-4.5 106.92-2.68 109.34-0.85 112.67-0.85 115.99-0.85 117.72-2.65 119.44-4.45 119.44-6.9L119.44-6.9Q119.44-10.8 114.94-12.8L114.94-12.8 108.99-15.45Q106.29-16.65 104.94-18.73 103.59-20.8 103.59-23.2L103.59-23.2Q103.59-26.85 106.04-29.48 108.49-32.1 113.09-32.1L113.09-32.1Q115.79-32.1 118.64-30.3L118.64-30.3Q119.59-29.75 119.94-29.75L119.94-29.75Q120.59-29.75 120.64-30.8L120.64-30.8 120.69-31.8 121.64-31.8 121.64-23.15 120.74-23.15Q120.34-27 118.27-28.83 116.19-30.65 113.22-30.65 110.24-30.65 108.61-29.03 106.99-27.4 106.99-25.33 106.99-23.25 108.11-21.6 109.24-19.95 111.44-19L111.44-19 117.44-16.35Q120.44-15 121.97-12.83 123.49-10.65 123.49-8.15L123.49-8.15Q123.49-4.6 120.64-2 117.79 0.6 113.04 0.6ZM130.29-1.6L130.29-1.6 130.29-30Q130.29-30.6 129.59-30.6L129.59-30.6 127.24-30.6 127.24-31.5 137.44-31.5 137.44-30.6 135.09-30.6Q134.39-30.6 134.39-30L134.39-30 134.39-1.6Q134.39-0.9 135.09-0.9L135.09-0.9 137.44-0.9 137.44 0 127.24 0 127.24-0.9 129.59-0.9Q130.29-0.9 130.29-1.6ZM146.09-8.75L146.09-8.75 147.24-4.15Q147.99-1.05 149.64-1.05L149.64-1.05Q150.49-1.05 150.96-1.68 151.44-2.3 151.44-3.18 151.44-4.05 151.29-4.8L151.29-4.8 152.24-4.95Q152.44-4.2 152.44-3.3L152.44-3.3Q152.44-1.5 151.36-0.45 150.29 0.6 148.59 0.6L148.59 0.6Q144.39 0.6 143.09-4.75L143.09-4.75 141.94-9.35Q141.09-12.6 139.59-13.88 138.09-15.15 135.34-15.15L135.34-15.15 135.34-16.25 147.14-30.6 144.64-30.6 144.64-31.5 151.44-31.5 151.44-30.6 150.09-30.6Q149.29-30.6 148.69-29.9L148.69-29.9 137.49-16.35Q141.34-16.3 143.29-14.25 145.24-12.2 146.09-8.75ZM181.24-0.9L181.24 0 170.99 0 170.99-0.9 174.24-0.9 170.74-10.55 159.74-10.55 156.24-0.9 159.49-0.9 159.49 0 151.94 0 151.94-0.9 153.78-0.9Q154.49-0.9 154.74-1.6L154.74-1.6 165.74-31.5 167.44-31.5 178.44-1.6Q178.69-0.9 179.38-0.9L179.38-0.9 181.24-0.9ZM170.24-11.95L165.28-25.6 160.28-11.95 170.24-11.95ZM207.63 0L206.03 0 187.23-27.9 187.23-1.6Q187.23-0.9 187.93-0.9L187.93-0.9 190.28-0.9 190.28 0 182.48 0 182.48-0.9 184.83-0.9Q185.53-0.9 185.53-1.6L185.53-1.6 185.53-30Q185.53-30.6 184.83-30.6L184.83-30.6 182.48-30.6 182.48-31.5 189.83-31.5 205.93-7.7 205.93-29.9Q205.93-30.6 205.23-30.6L205.23-30.6 202.88-30.6 202.88-31.5 210.68-31.5 210.68-30.6 208.33-30.6Q207.63-30.6 207.63-30L207.63-30 207.63 0ZM224.58 0.6L224.58 0.6Q221.28 0.6 217.98-1.2L217.98-1.2Q216.88-1.75 216.48-1.75L216.48-1.75Q215.73-1.75 215.68-0.7L215.68-0.7 215.63 0 214.68 0 214.68-8.35 215.58-8.35Q216.03-4.5 218.46-2.68 220.88-0.85 224.21-0.85 227.53-0.85 229.25-2.65 230.98-4.45 230.98-6.9L230.98-6.9Q230.98-10.8 226.48-12.8L226.48-12.8 220.53-15.45Q217.83-16.65 216.48-18.73 215.13-20.8 215.13-23.2L215.13-23.2Q215.13-26.85 217.58-29.48 220.03-32.1 224.63-32.1L224.63-32.1Q227.33-32.1 230.18-30.3L230.18-30.3Q231.13-29.75 231.48-29.75L231.48-29.75Q232.13-29.75 232.18-30.8L232.18-30.8 232.23-31.8 233.18-31.8 233.18-23.15 232.28-23.15Q231.88-27 229.81-28.83 227.73-30.65 224.75-30.65 221.78-30.65 220.16-29.03 218.53-27.4 218.53-25.33 218.53-23.25 219.66-21.6 220.78-19.95 222.98-19L222.98-19 228.98-16.35Q231.98-15 233.5-12.83 235.03-10.65 235.03-8.15L235.03-8.15Q235.03-4.6 232.18-2 229.33 0.6 224.58 0.6ZM254.08 0L238.78 0 238.78-0.9 241.13-0.9Q241.83-0.9 241.83-1.6L241.83-1.6 241.83-30Q241.83-30.6 241.13-30.6L241.13-30.6 238.78-30.6 238.78-31.5 248.98-31.5 248.98-30.6 246.63-30.6Q245.93-30.6 245.93-30L245.93-30 245.93-1.4 255.88-1.4Q257.18-1.4 257.28-2.5L257.28-2.5 258.03-8.35 259.18-8.35 259.18-6Q259.18-1.6 259.63 0.45L259.63 0.45Q258.03 0 254.08 0L254.08 0ZM264.43-1.6L264.43-1.6 264.43-30Q264.43-30.6 263.73-30.6L263.73-30.6 261.38-30.6 261.38-31.5 271.57-31.5 271.57-30.6 269.23-30.6Q268.52-30.6 268.52-30L268.52-30 268.52-1.6Q268.52-0.9 269.23-0.9L269.23-0.9 271.57-0.9 271.57 0 261.38 0 261.38-0.9 263.73-0.9Q264.43-0.9 264.43-1.6ZM291.62 0L275.07 0 275.07-0.9 277.42-0.9Q278.12-0.9 278.12-1.6L278.12-1.6 278.12-30Q278.12-30.6 277.42-30.6L277.42-30.6 275.07-30.6 275.07-31.5 290.92-31.5Q294.87-31.5 296.47-31.95L296.47-31.95Q296.02-29.9 296.02-26.25L296.02-26.25 296.02-23.9 294.87-23.9 294.12-29Q294.02-30.1 292.72-30.1L292.72-30.1 282.22-30.1 282.22-16.45 292.27-16.45Q292.87-16.45 292.97-17.15L292.97-17.15 293.22-20.25 294.12-20.25 294.12-11.25 293.22-11.25 292.97-14.35Q292.87-15.05 292.27-15.05L292.27-15.05 282.22-15.05 282.22-1.4 293.42-1.4Q294.72-1.4 294.82-2.5L294.82-2.5 295.57-8.35 296.72-8.35 296.72-6Q296.72-1.6 297.17 0.45L297.17 0.45Q295.57 0 291.62 0L291.62 0ZM320.17-30.1L313.72-30.1 313.72-1.5Q313.72-0.9 314.42-0.9L314.42-0.9 318.77-0.9 318.77 0 304.57 0 304.57-0.9 308.92-0.9Q309.62-0.9 309.62-1.5L309.62-1.5 309.62-30.1 303.17-30.1Q301.87-30.1 301.77-29L301.77-29 301.02-23.15 299.87-23.15 299.87-25.5Q299.87-29.9 299.42-31.95L299.42-31.95Q301.02-31.5 304.97-31.5L304.97-31.5 318.37-31.5Q322.32-31.5 323.92-31.95L323.92-31.95Q323.47-29.9 323.47-25.5L323.47-25.5 323.47-23.15 322.32-23.15 321.57-29Q321.47-30.1 320.17-30.1L320.17-30.1Z" opacity="1" transform="matrix(1,0,0,1,0,0)" fill="#000000" class="undefined-text-0" data-fill-palette-color="primary" id="text-0"></path></svg></g></svg></g><g transform="matrix(1,0,0,1,30.25285652628525,19.916476912830607)"><svg viewBox="0 0 97.88620593321615 9.692190675936661" height="9.692190675936661" width="97.88620593321615"><g transform="matrix(1,0,0,1,0,0)"><svg width="97.88620593321615" viewBox="4.25 -38.70000076293945 497.3500061035156 49.25" height="9.692190675936661" data-palette-color="#332885"><path d="M26.3 0L21.15 0 13.75-14.65 13.45-14.65 8.9-14.65 8.9 0 4.25 0 4.25-34.4 12.3-34.4Q24.6-34.4 24.6-24.7L24.6-24.7Q24.6-21.3 22.95-18.95 21.3-16.6 18.1-15.5L18.1-15.5 26.3 0ZM12.65-18.2Q16.25-18.2 18-19.78 19.75-21.35 19.75-24.7L19.75-24.7Q19.75-27.85 17.98-29.35 16.2-30.85 12.2-30.85L12.2-30.85 8.9-30.85 8.9-18.2 12.65-18.2ZM49.75-13.95Q49.75-12.9 49.65-11.6L49.65-11.6 34.35-11.6Q34.55-7 36.2-4.98 37.85-2.95 40.7-2.95L40.7-2.95Q42.5-2.95 43.92-3.5 45.35-4.05 46.9-5.3L46.9-5.3 48.9-2.65Q45.2 0.65 40.5 0.65L40.5 0.65Q35.35 0.65 32.52-2.93 29.7-6.5 29.7-12.95L29.7-12.95Q29.7-19.4 32.4-23.18 35.1-26.95 39.9-26.95L39.9-26.95Q44.65-26.95 47.2-23.58 49.75-20.2 49.75-13.95L49.75-13.95ZM45.4-14.75L45.4-15.3Q45.4-23.55 39.95-23.55L39.95-23.55Q37.45-23.55 36-21.48 34.55-19.4 34.35-14.75L34.35-14.75 45.4-14.75ZM74.05-29.15L75.3-25.35Q73.15-24.5 68.65-24.5L68.65-24.5Q72.85-22.4 72.85-17.6L72.85-17.6Q72.85-13.65 70.37-11.23 67.9-8.8 63.65-8.8L63.65-8.8Q62.05-8.8 60.75-9.3L60.75-9.3Q59.35-8.3 59.35-6.75L59.35-6.75Q59.35-4.4 62.65-4.4L62.65-4.4 66.1-4.4Q70-4.4 72.3-2.43 74.6-0.45 74.6 2.6L74.6 2.6Q74.6 6.3 71.75 8.43 68.9 10.55 63.4 10.55L63.4 10.55Q57.7 10.55 55.32 8.6 52.95 6.65 52.95 2.65L52.95 2.65 57 2.65Q57 4.3 57.57 5.28 58.15 6.25 59.52 6.73 60.9 7.2 63.45 7.2L63.45 7.2Q67 7.2 68.55 6.1 70.1 5 70.1 2.95L70.1 2.95Q70.1 1.05 68.82 0.05 67.55-0.95 65.2-0.95L65.2-0.95 62.25-0.95Q58.8-0.95 57.1-2.27 55.4-3.6 55.4-5.8L55.4-5.8Q55.4-8.35 58.15-10.35L58.15-10.35Q56.05-11.55 55.02-13.38 54-15.2 54-17.8L54-17.8Q54-21.9 56.6-24.4 59.2-26.9 63.45-26.9L63.45-26.9Q67.4-26.9 69.57-27.45 71.75-28 74.05-29.15L74.05-29.15ZM63.5-23.75Q61.05-23.75 59.77-22.23 58.5-20.7 58.5-17.8L58.5-17.8Q58.5-15 59.82-13.43 61.15-11.85 63.5-11.85L63.5-11.85Q68.45-11.85 68.45-17.85L68.45-17.85Q68.45-20.75 67.2-22.25 65.95-23.75 63.5-23.75L63.5-23.75ZM97.94-13.95Q97.94-12.9 97.84-11.6L97.84-11.6 82.54-11.6Q82.74-7 84.39-4.98 86.04-2.95 88.89-2.95L88.89-2.95Q90.69-2.95 92.12-3.5 93.54-4.05 95.09-5.3L95.09-5.3 97.09-2.65Q93.39 0.65 88.69 0.65L88.69 0.65Q83.54 0.65 80.72-2.93 77.89-6.5 77.89-12.95L77.89-12.95Q77.89-19.4 80.59-23.18 83.29-26.95 88.09-26.95L88.09-26.95Q92.84-26.95 95.39-23.58 97.94-20.2 97.94-13.95L97.94-13.95ZM93.59-14.75L93.59-15.3Q93.59-23.55 88.14-23.55L88.14-23.55Q85.64-23.55 84.19-21.48 82.74-19.4 82.54-14.75L82.54-14.75 93.59-14.75ZM114.99-26.9Q116.29-26.9 117.24-26.6L117.24-26.6 116.49-22.25Q115.54-22.55 114.44-22.55L114.44-22.55Q112.24-22.55 110.87-20.8 109.49-19.05 108.69-15.45L108.69-15.45 108.69 0 104.19 0 104.19-26.3 108.09-26.3 108.44-21.1Q110.39-26.9 114.99-26.9L114.99-26.9ZM121.64-26.3L126.14-26.3 126.14 0 121.64 0 121.64-26.3ZM123.89-38.7Q125.19-38.7 126.01-37.85 126.84-37 126.84-35.75L126.84-35.75Q126.84-34.5 126.04-33.68 125.24-32.85 123.89-32.85L123.89-32.85Q122.59-32.85 121.76-33.68 120.94-34.5 120.94-35.75L120.94-35.75Q120.94-37 121.76-37.85 122.59-38.7 123.89-38.7L123.89-38.7ZM145.99-26.95Q149.14-26.95 150.91-24.88 152.69-22.8 152.69-19.15L152.69-19.15 152.69 0 148.19 0 148.19-18.6Q148.19-21.15 147.34-22.28 146.49-23.4 144.74-23.4L144.74-23.4Q141.44-23.4 138.74-18.7L138.74-18.7 138.74 0 134.24 0 134.24-26.3 138.14-26.3 138.49-22.4Q141.54-26.95 145.99-26.95L145.99-26.95ZM178.63-29.15L179.88-25.35Q177.73-24.5 173.23-24.5L173.23-24.5Q177.43-22.4 177.43-17.6L177.43-17.6Q177.43-13.65 174.96-11.23 172.48-8.8 168.23-8.8L168.23-8.8Q166.63-8.8 165.33-9.3L165.33-9.3Q163.93-8.3 163.93-6.75L163.93-6.75Q163.93-4.4 167.23-4.4L167.23-4.4 170.68-4.4Q174.58-4.4 176.88-2.43 179.18-0.45 179.18 2.6L179.18 2.6Q179.18 6.3 176.33 8.43 173.48 10.55 167.98 10.55L167.98 10.55Q162.28 10.55 159.91 8.6 157.53 6.65 157.53 2.65L157.53 2.65 161.58 2.65Q161.58 4.3 162.16 5.28 162.73 6.25 164.11 6.73 165.48 7.2 168.03 7.2L168.03 7.2Q171.58 7.2 173.13 6.1 174.68 5 174.68 2.95L174.68 2.95Q174.68 1.05 173.41 0.05 172.13-0.95 169.78-0.95L169.78-0.95 166.83-0.95Q163.38-0.95 161.68-2.27 159.98-3.6 159.98-5.8L159.98-5.8Q159.98-8.35 162.73-10.35L162.73-10.35Q160.63-11.55 159.61-13.38 158.58-15.2 158.58-17.8L158.58-17.8Q158.58-21.9 161.18-24.4 163.78-26.9 168.03-26.9L168.03-26.9Q171.98-26.9 174.16-27.45 176.33-28 178.63-29.15L178.63-29.15ZM168.08-23.75Q165.63-23.75 164.36-22.23 163.08-20.7 163.08-17.8L163.08-17.8Q163.08-15 164.41-13.43 165.73-11.85 168.08-11.85L168.08-11.85Q173.03-11.85 173.03-17.85L173.03-17.85Q173.03-20.75 171.78-22.25 170.53-23.75 168.08-23.75L168.08-23.75ZM202.53-13.95Q202.53-12.9 202.43-11.6L202.43-11.6 187.13-11.6Q187.33-7 188.98-4.98 190.63-2.95 193.48-2.95L193.48-2.95Q195.28-2.95 196.71-3.5 198.13-4.05 199.68-5.3L199.68-5.3 201.68-2.65Q197.98 0.65 193.28 0.65L193.28 0.65Q188.13 0.65 185.31-2.93 182.48-6.5 182.48-12.95L182.48-12.95Q182.48-19.4 185.18-23.18 187.88-26.95 192.68-26.95L192.68-26.95Q197.43-26.95 199.98-23.58 202.53-20.2 202.53-13.95L202.53-13.95ZM198.18-14.75L198.18-15.3Q198.18-23.55 192.73-23.55L192.73-23.55Q190.23-23.55 188.78-21.48 187.33-19.4 187.13-14.75L187.13-14.75 198.18-14.75ZM220.53-26.95Q223.68-26.95 225.45-24.88 227.23-22.8 227.23-19.15L227.23-19.15 227.23 0 222.73 0 222.73-18.6Q222.73-21.15 221.88-22.28 221.03-23.4 219.28-23.4L219.28-23.4Q215.98-23.4 213.28-18.7L213.28-18.7 213.28 0 208.78 0 208.78-26.3 212.68-26.3 213.03-22.4Q216.08-26.95 220.53-26.95L220.53-26.95ZM263.27-6Q263.27-4.4 263.72-3.63 264.17-2.85 265.12-2.45L265.12-2.45 264.17 0.6Q262.22 0.3 261.12-0.6 260.02-1.5 259.57-3.35L259.57-3.35Q257.02 0.65 252.42 0.65L252.42 0.65Q248.92 0.65 246.87-1.53 244.82-3.7 244.82-7.35L244.82-7.35Q244.82-11.55 247.57-13.75 250.32-15.95 255.42-15.95L255.42-15.95 258.82-15.95 258.82-18.2Q258.82-20.95 257.7-22.18 256.57-23.4 254.02-23.4L254.02-23.4Q251.27-23.4 247.62-22L247.62-22 246.52-25.15Q250.92-26.95 254.72-26.95L254.72-26.95Q263.27-26.95 263.27-18.4L263.27-18.4 263.27-6ZM253.47-2.75Q256.97-2.75 258.82-6.85L258.82-6.85 258.82-13.05 255.92-13.05Q249.42-13.05 249.42-7.6L249.42-7.6Q249.42-5.25 250.47-4 251.52-2.75 253.47-2.75L253.47-2.75ZM284.62-26.3L289.12-26.3 281.27 0 275.87 0 267.77-26.3 272.47-26.3 278.57-3.8 284.62-26.3ZM310.21 0L305.56 0 305.56-34.4 322.26-34.4 321.76-30.8 310.21-30.8 310.21-18.8 320.21-18.8 320.21-15.2 310.21-15.2 310.21 0ZM338.06-26.9Q339.36-26.9 340.31-26.6L340.31-26.6 339.56-22.25Q338.61-22.55 337.51-22.55L337.51-22.55Q335.31-22.55 333.94-20.8 332.56-19.05 331.76-15.45L331.76-15.45 331.76 0 327.26 0 327.26-26.3 331.16-26.3 331.51-21.1Q333.46-26.9 338.06-26.9L338.06-26.9ZM361.11-6Q361.11-4.4 361.56-3.63 362.01-2.85 362.96-2.45L362.96-2.45 362.01 0.6Q360.06 0.3 358.96-0.6 357.86-1.5 357.41-3.35L357.41-3.35Q354.86 0.65 350.26 0.65L350.26 0.65Q346.76 0.65 344.71-1.53 342.66-3.7 342.66-7.35L342.66-7.35Q342.66-11.55 345.41-13.75 348.16-15.95 353.26-15.95L353.26-15.95 356.66-15.95 356.66-18.2Q356.66-20.95 355.53-22.18 354.41-23.4 351.86-23.4L351.86-23.4Q349.11-23.4 345.46-22L345.46-22 344.36-25.15Q348.76-26.95 352.56-26.95L352.56-26.95Q361.11-26.95 361.11-18.4L361.11-18.4 361.11-6ZM351.31-2.75Q354.81-2.75 356.66-6.85L356.66-6.85 356.66-13.05 353.76-13.05Q347.26-13.05 347.26-7.6L347.26-7.6Q347.26-5.25 348.31-4 349.36-2.75 351.31-2.75L351.31-2.75ZM380.96-26.95Q384.11-26.95 385.88-24.88 387.66-22.8 387.66-19.15L387.66-19.15 387.66 0 383.16 0 383.16-18.6Q383.16-21.15 382.31-22.28 381.46-23.4 379.71-23.4L379.71-23.4Q376.41-23.4 373.71-18.7L373.71-18.7 373.71 0 369.21 0 369.21-26.3 373.11-26.3 373.46-22.4Q376.51-26.95 380.96-26.95L380.96-26.95ZM395.56-36.95L400.06-37.45 400.06 0 395.56 0 395.56-36.95ZM409.2-26.3L413.9-26.3 405-14.6 414.75 0 409.75 0 400.31-14.4 409.2-26.3ZM423.8 0.65Q421.4 0.65 420-0.8 418.6-2.25 418.6-4.85L418.6-4.85 418.6-36.95 423.1-37.45 423.1-5Q423.1-3.05 424.7-3.05L424.7-3.05Q425.35-3.05 426.15-3.35L426.15-3.35 427.15-0.2Q425.55 0.65 423.8 0.65L423.8 0.65ZM448.45-6Q448.45-4.4 448.9-3.63 449.35-2.85 450.3-2.45L450.3-2.45 449.35 0.6Q447.4 0.3 446.3-0.6 445.2-1.5 444.75-3.35L444.75-3.35Q442.2 0.65 437.6 0.65L437.6 0.65Q434.1 0.65 432.05-1.53 430-3.7 430-7.35L430-7.35Q430-11.55 432.75-13.75 435.5-15.95 440.6-15.95L440.6-15.95 444-15.95 444-18.2Q444-20.95 442.88-22.18 441.75-23.4 439.2-23.4L439.2-23.4Q436.45-23.4 432.8-22L432.8-22 431.7-25.15Q436.1-26.95 439.9-26.95L439.9-26.95Q448.45-26.95 448.45-18.4L448.45-18.4 448.45-6ZM438.65-2.75Q442.15-2.75 444-6.85L444-6.85 444-13.05 441.1-13.05Q434.6-13.05 434.6-7.6L434.6-7.6Q434.6-5.25 435.65-4 436.7-2.75 438.65-2.75L438.65-2.75ZM468.3-26.95Q471.45-26.95 473.22-24.88 475-22.8 475-19.15L475-19.15 475 0 470.5 0 470.5-18.6Q470.5-21.15 469.65-22.28 468.8-23.4 467.05-23.4L467.05-23.4Q463.75-23.4 461.05-18.7L461.05-18.7 461.05 0 456.55 0 456.55-26.3 460.45-26.3 460.8-22.4Q463.85-26.95 468.3-26.95L468.3-26.95ZM497.1-37.45L501.6-36.95 501.6 0 497.6 0 497.3-3.45Q494.75 0.65 490.45 0.65L490.45 0.65Q486.15 0.65 483.77-3 481.4-6.65 481.4-13.05L481.4-13.05Q481.4-17.2 482.57-20.35 483.75-23.5 485.9-25.23 488.05-26.95 490.85-26.95L490.85-26.95Q494.6-26.95 497.1-23.8L497.1-23.8 497.1-37.45ZM491.5-2.9Q493.3-2.9 494.62-3.9 495.95-4.9 497.1-6.85L497.1-6.85 497.1-20.05Q494.85-23.4 491.85-23.4L491.85-23.4Q489.2-23.4 487.65-20.85 486.1-18.3 486.15-13.15L486.15-13.15Q486.15-7.9 487.55-5.4 488.95-2.9 491.5-2.9L491.5-2.9Z" opacity="1" transform="matrix(1,0,0,1,0,0)" fill="#000000" class="undefined-text-1" data-fill-palette-color="secondary" id="text-1"></path></svg></g></svg></g></svg></g></svg></g><g transform="matrix(1,0,0,1,64.62278914448501,0)"><svg viewBox="0 0 29.938300291745563 40.919178607676365" height="40.919178607676365" width="29.938300291745563"><g><svg xmlns="http://www.w3.org/2000/svg" xmlns:xlink="http://www.w3.org/1999/xlink" version="1.1" x="7.999999999999999" y="0" viewBox="33.487998962402344 1.0749998092651367 33.316001892089844 97.8070068359375" enable-background="new 0 0 100 100" xml:space="preserve" height="40.919178607676365" width="13.938300291745565" class="icon-icon-0" data-fill-palette-color="accent" id="icon-0"><g fill="#332885" data-fill-palette-color="accent"><g fill="#332885" data-fill-palette-color="accent"><rect x="33.488" y="95.938" width="33.316" height="2.944" fill="#000000" data-fill-palette-color="accent"></rect><path d="M35.356 64.354v30.107h29.601V64.354H35.356zM44.314 92.409h-4.288v-22.62c0-0.735 0.157-1.338 0.352-1.338h3.581c0.195 0 0.355 0.603 0.355 1.338V92.409zM52.302 92.409h-4.286v-22.62c0-0.735 0.154-1.338 0.349-1.338h3.584c0.195 0 0.354 0.603 0.354 1.338V92.409zM60.29 92.409h-4.286v-22.62c0-0.735 0.155-1.338 0.354-1.338h3.582c0.193 0 0.351 0.603 0.351 1.338V92.409z" fill="#000000" data-fill-palette-color="accent"></path><path d="M36.977 31.235v31.801h26.34V31.235H36.977zM44.314 60.154h-4.288V36.342c0-0.779 0.157-1.414 0.352-1.414h3.581c0.195 0 0.355 0.635 0.355 1.414V60.154zM52.302 60.154h-4.286V36.342c0-0.779 0.154-1.414 0.349-1.414h3.584c0.195 0 0.354 0.635 0.354 1.414V60.154zM60.29 60.154h-4.286V36.342c0-0.779 0.155-1.414 0.354-1.414h3.582c0.193 0 0.351 0.635 0.351 1.414V60.154z" fill="#000000" data-fill-palette-color="accent"></path><path d="M39.077 9.546v20.552h22.16V9.546H39.077zM48.308 28.077H44.02V12.49c0-0.503 0.16-0.924 0.351-0.924h3.583c0.196 0 0.354 0.421 0.354 0.924V28.077zM56.295 28.077H52.01V12.49c0-0.503 0.157-0.924 0.352-0.924h3.584c0.192 0 0.35 0.421 0.35 0.924V28.077z" fill="#000000" data-fill-palette-color="accent"></path><path d="M60 5h-6.315c0.021 0 0.047-0.22 0.047-0.379 0-1.986-1.605-3.546-3.584-3.546-1.98 0-3.585 1.538-3.585 3.524 0 0.159 0.027 0.4 0.047 0.4H40v3h9.094c0.335 0 0.684 0.176 1.053 0.176C50.516 8.176 50.865 8 51.2 8H60V5z" fill="#000000" data-fill-palette-color="accent"></path></g></g></svg></g></svg></g><g><rect width="33.97395282073529" height="1.4530566419890347" y="38.46612196568733" x="94.56108943623057" fill="#000000" data-fill-palette-color="secondary"></rect><rect width="33.97395282073529" height="1.4530566419890347" y="38.46612196568733" x="30.648836323749713" fill="#000000" data-fill-palette-color="secondary"></rect></g></svg></g></svg></g><g><path d="M11.212 190.538V190.538C10.573 188.669 10.443 186.625 10.824 184.407V184.407C10.923 183.67 10.934 183.188 10.857 182.962V182.962C10.712 182.54 10.336 182.416 9.727 182.589V182.589L9.12 182.754 8.842 181.942 15.941 179.514 16.203 180.279C14.107 181.284 12.778 182.649 12.215 184.374 11.654 186.105 11.697 187.915 12.343 189.803 12.986 191.685 13.986 192.943 15.341 193.576 16.694 194.202 18.066 194.278 19.457 193.802V193.802C21.666 193.047 22.901 191.201 23.163 188.264V188.264L23.685 182.423C23.842 180.661 24.377 179.195 25.291 178.025 26.208 176.861 27.346 176.046 28.705 175.581V175.581C30.776 174.873 32.795 174.959 34.762 175.84 36.721 176.716 38.147 178.461 39.04 181.073V181.073C39.564 182.602 39.592 184.35 39.126 186.316V186.316C39.002 186.963 38.974 187.384 39.041 187.579V187.579C39.168 187.95 39.531 188.047 40.132 187.87V187.87L40.997 187.627 41.272 188.429 33.918 190.944 33.656 190.18C35.763 189.206 37.131 187.954 37.76 186.424 38.396 184.892 38.426 183.283 37.849 181.596 37.272 179.91 36.364 178.765 35.124 178.162 33.889 177.552 32.683 177.447 31.506 177.85 30.329 178.252 29.381 178.935 28.663 179.898 27.949 180.852 27.535 182.045 27.419 183.476V183.476L26.91 189.355C26.73 191.315 26.171 192.94 25.235 194.23 24.296 195.515 23.116 196.4 21.693 196.886V196.886C19.679 197.575 17.659 197.363 15.633 196.249 13.607 195.135 12.134 193.231 11.212 190.538ZM50.838 207.598L47.827 202.645 25.857 216.002C25.55 216.188 25.505 216.461 25.723 216.819V216.819L27.755 220.161 27.064 220.581 20.435 209.676 21.125 209.257 23.157 212.599C23.375 212.957 23.637 213.042 23.944 212.856V212.856L45.915 199.499 42.898 194.537C42.494 193.872 41.995 193.685 41.401 193.976V193.976L36.561 196.136 36.022 195.25 37.829 194.151C40.08 192.782 41.662 191.665 42.575 190.798V190.798C42.84 191.759 43.587 193.25 44.817 195.274V195.274L51.073 205.564C52.303 207.588 53.284 208.938 54.014 209.614V209.614C52.824 210.026 51.104 210.916 48.853 212.285V212.285L47.046 213.384 46.507 212.497 50.648 209.186C51.179 208.792 51.243 208.263 50.838 207.598ZM50.425 246.159L49.837 246.714 43.503 240.016 44.09 239.461 46.099 241.584 50.245 233.336 43.451 226.153 34.978 229.827 36.987 231.951 36.4 232.506 31.738 227.577 32.325 227.021 33.47 228.232C33.758 228.536 34.104 228.598 34.509 228.416V228.416L60.832 217.13 61.888 218.246 49.154 243.9C48.95 244.294 48.992 244.643 49.28 244.948V244.948ZM50.85 232.146L56.709 220.481 44.701 225.644ZM83.419 237.695L78.676 234.363 63.895 255.402C63.689 255.696 63.757 255.963 64.1 256.204V256.204L67.3 258.453 66.836 259.114 56.394 251.778 56.858 251.117 60.059 253.365C60.402 253.606 60.676 253.58 60.883 253.286V253.286L75.663 232.246 70.912 228.908C70.275 228.461 69.743 228.49 69.315 228.994V228.994L65.745 232.912 64.896 232.316 66.112 230.585C67.626 228.43 68.628 226.772 69.118 225.612V225.612C69.745 226.386 71.027 227.453 72.965 228.815V228.815L82.819 235.737C84.757 237.099 86.196 237.943 87.136 238.27V238.27C86.211 239.124 84.992 240.629 83.478 242.784V242.784L82.262 244.515 81.413 243.919 83.88 239.226C84.21 238.653 84.056 238.143 83.419 237.695ZM85.04 269.356V269.356C83.239 268.542 81.661 267.238 80.304 265.442V265.442C79.835 264.865 79.492 264.527 79.273 264.429V264.429C78.867 264.245 78.519 264.435 78.228 264.997V264.997L77.933 265.553 77.151 265.2 80.241 258.362 80.978 258.695C80.276 260.911 80.361 262.814 81.233 264.405 82.111 265.999 83.459 267.207 85.278 268.029 87.09 268.848 88.691 268.98 90.08 268.426 91.464 267.868 92.458 266.92 93.063 265.58V265.58C94.025 263.453 93.525 261.289 91.563 259.088V259.088L87.662 254.709C86.485 253.388 85.783 251.994 85.556 250.527 85.335 249.062 85.52 247.675 86.111 246.365V246.365C87.013 244.371 88.458 242.959 90.446 242.127 92.426 241.299 94.674 241.454 97.19 242.591V242.591C98.663 243.256 99.956 244.432 101.07 246.118V246.118C101.457 246.651 101.745 246.959 101.933 247.044V247.044C102.29 247.206 102.61 247.007 102.892 246.448V246.448L103.307 245.651 104.08 246 100.879 253.083 100.142 252.75C100.875 250.548 100.899 248.694 100.215 247.188 99.533 245.675 98.38 244.552 96.755 243.818 95.131 243.084 93.675 242.962 92.387 243.453 91.096 243.936 90.195 244.744 89.683 245.877 89.17 247.011 89.019 248.169 89.229 249.351 89.436 250.525 90.022 251.644 90.987 252.707V252.707L94.923 257.103C96.229 258.576 97.031 260.096 97.331 261.662 97.624 263.225 97.461 264.692 96.842 266.062V266.062C95.966 268.001 94.428 269.328 92.229 270.043 90.031 270.757 87.634 270.528 85.04 269.356ZM105.101 274.208V274.208L110.294 249.21C110.367 248.858 110.195 248.639 109.778 248.552V248.552L107.717 248.124 107.882 247.333 116.859 249.198 116.695 249.989 114.624 249.559C114.214 249.473 113.972 249.607 113.899 249.958V249.958L108.706 274.957C108.621 275.367 108.783 275.615 109.194 275.7V275.7L111.265 276.131 111.1 276.922 102.122 275.057 102.287 274.266 104.348 274.694C104.765 274.78 105.016 274.619 105.101 274.208ZM120.309 270.805V270.805L120.485 275.06C120.544 276.968 121.059 278.022 122.029 278.224V278.224C122.53 278.328 122.956 278.226 123.305 277.918 123.661 277.612 123.892 277.201 123.999 276.687 124.106 276.172 124.163 275.685 124.17 275.224V275.224L125.027 275.27C125.052 275.737 125.01 276.235 124.901 276.762V276.762C124.682 277.817 124.192 278.585 123.434 279.066 122.68 279.555 121.802 279.695 120.799 279.487V279.487C118.337 278.975 117.051 277.071 116.941 273.774V273.774L116.765 269.518C116.667 267.507 116.252 266.035 115.522 265.102 114.799 264.171 113.632 263.538 112.024 263.204V263.204L112.225 262.237 125.233 251.762 123.035 251.306 123.199 250.515 129.178 251.757 129.014 252.548 127.832 252.302C127.363 252.205 126.906 252.324 126.463 252.66V252.66L114.128 262.54C116.383 263.036 117.958 264.005 118.854 265.448 119.75 266.891 120.235 268.677 120.309 270.805ZM155.5 278.487L155.521 279.295 146.306 279.542 146.284 278.734 149.206 278.655 145.832 270.062 135.948 270.327 133.029 279.089 135.951 279.01 135.973 279.818 129.19 280 129.169 279.192 130.834 279.148C131.253 279.136 131.53 278.919 131.665 278.496V278.496L140.83 251.362 142.366 251.321 152.97 277.926C153.127 278.341 153.415 278.543 153.834 278.531V278.531ZM145.35 268.818L140.573 256.669 136.403 269.057ZM183.696 272.704L182.304 273.059 159.731 252.926 165.571 275.841C165.674 276.247 165.929 276.398 166.335 276.294V276.294L168.385 275.772 168.584 276.555 161.787 278.287 161.588 277.504 163.628 276.984C164.04 276.879 164.195 276.624 164.091 276.218V276.218L157.786 251.476C157.698 251.128 157.447 251.006 157.035 251.111V251.111L154.994 251.631 154.795 250.848 161.195 249.217 180.507 266.371 175.579 247.034C175.476 246.628 175.221 246.477 174.815 246.58V246.58L172.765 247.103 172.566 246.32 179.363 244.588 179.562 245.371 177.512 245.893C177.106 245.997 176.948 246.222 177.036 246.57V246.57ZM202.592 264.886V264.886C200.831 265.782 198.826 266.198 196.577 266.134V266.134C195.833 266.14 195.355 266.197 195.141 266.305V266.305C194.744 266.508 194.674 266.898 194.931 267.476V267.476L195.181 268.054 194.416 268.444 191.012 261.757 191.732 261.391C193.022 263.324 194.561 264.447 196.348 264.762 198.141 265.073 199.927 264.776 201.705 263.87 203.478 262.968 204.582 261.801 205.018 260.37 205.447 258.942 205.329 257.573 204.662 256.263V256.263C203.603 254.182 201.601 253.22 198.657 253.375V253.375L192.8 253.681C191.034 253.774 189.507 253.451 188.22 252.71 186.938 251.967 185.971 250.955 185.319 249.675V249.675C184.327 247.725 184.127 245.714 184.722 243.642 185.314 241.579 186.84 239.921 189.3 238.669V238.669C190.74 237.936 192.467 237.661 194.479 237.846V237.846C195.137 237.877 195.557 237.845 195.741 237.752V237.752C196.091 237.574 196.136 237.2 195.876 236.631V236.631L195.513 235.808 196.269 235.423 199.795 242.35 199.075 242.716C197.814 240.768 196.382 239.59 194.779 239.182 193.172 238.769 191.575 238.966 189.986 239.775 188.398 240.584 187.392 241.644 186.971 242.956 186.54 244.265 186.607 245.474 187.171 246.583 187.735 247.691 188.545 248.533 189.599 249.108 190.644 249.681 191.884 249.923 193.317 249.835V249.835L199.209 249.511C201.175 249.414 202.862 249.738 204.272 250.483 205.675 251.231 206.718 252.275 207.4 253.615V253.615C208.366 255.512 208.44 257.541 207.623 259.704 206.806 261.867 205.129 263.594 202.592 264.886ZM228.354 246.657L217.616 255.243 217.111 254.612 218.755 253.297C219.088 253.031 219.123 252.735 218.861 252.407V252.407L202.917 232.465C202.693 232.184 202.415 232.177 202.082 232.443V232.443L200.438 233.758 199.933 233.126 207.095 227.401 207.6 228.032 205.947 229.353C205.62 229.614 205.569 229.885 205.793 230.166V230.166L221.849 250.248 228.839 244.66C229.447 244.174 229.569 243.655 229.205 243.103V243.103L226.443 238.579 227.254 237.931 228.568 239.575C230.217 241.638 231.53 243.066 232.506 243.861V243.861C231.588 244.246 230.204 245.178 228.354 246.657ZM237.313 236.167V236.167L218.6 218.795C218.337 218.551 218.061 218.585 217.771 218.897V218.897L216.339 220.44 215.747 219.89 221.985 213.17 222.577 213.72 221.138 215.27C220.853 215.577 220.842 215.853 221.105 216.097V216.097L239.818 233.468C240.125 233.753 240.421 233.742 240.706 233.435V233.435L242.145 231.885 242.737 232.435 236.499 239.155 235.907 238.605 237.339 237.062C237.629 236.75 237.62 236.452 237.313 236.167ZM255.678 213.77L247.483 226.186 246.809 225.741 247.969 223.984C248.203 223.628 248.145 223.335 247.796 223.104V223.104L226.487 209.039C226.187 208.841 225.92 208.92 225.685 209.275V209.275L224.526 211.032 223.851 210.587 231.7 198.696C233.005 196.72 233.807 195.257 234.107 194.307V194.307C234.984 195.213 236.335 196.268 238.162 197.474V197.474L239.919 198.633 239.352 199.491 235.157 197.534C234.574 197.222 234.068 197.39 233.64 198.04V198.04L228.44 205.917 238.682 212.678 243.662 205.133C243.86 204.833 243.8 204.543 243.484 204.262V204.262L241.273 202.54 241.718 201.866 248.472 206.323 248.026 206.998 245.582 205.647C245.199 205.467 244.909 205.526 244.711 205.826V205.826L239.731 213.37 249.974 220.131 255.52 211.729C255.948 211.079 255.904 210.548 255.388 210.135V210.135L251.373 206.672 251.939 205.815 253.696 206.975C255.9 208.429 257.591 209.382 258.768 209.832V209.832C258.013 210.481 256.983 211.794 255.678 213.77ZM242.987 175.994L240.914 181.407 264.924 190.606C265.259 190.734 265.502 190.603 265.652 190.212V190.212L267.051 186.559 267.806 186.849 263.241 198.765 262.486 198.476 263.885 194.824C264.035 194.432 263.942 194.172 263.607 194.044V194.044L239.596 184.846 237.519 190.268C237.241 190.995 237.398 191.504 237.992 191.795V191.795L242.663 194.301 242.291 195.27 240.316 194.513C237.857 193.571 236.004 193.004 234.76 192.812V192.812C235.358 192.015 236.08 190.511 236.927 188.3V188.3L241.235 177.054C242.082 174.843 242.55 173.241 242.638 172.249V172.249C243.692 172.938 245.449 173.753 247.908 174.695V174.695L249.884 175.452 249.512 176.421 244.36 175.174C243.723 174.994 243.266 175.267 242.987 175.994Z" fill="#000000" data-fill-palette-color="accent"></path><path d="M30.924 104.149V104.149C30.295 105.993 29.163 107.666 27.526 109.168V109.168C27.008 109.68 26.709 110.049 26.632 110.275V110.275C26.491 110.691 26.71 111.015 27.291 111.249V111.249L27.864 111.486 27.59 112.289 20.583 109.9 20.841 109.144C23.08 109.627 24.941 109.362 26.424 108.349 27.906 107.343 28.964 105.909 29.6 104.045 30.233 102.188 30.211 100.603 29.534 99.29 28.855 97.983 27.833 97.097 26.466 96.631V96.631C24.282 95.886 22.2 96.582 20.221 98.718V98.718L16.298 102.958C15.109 104.239 13.807 105.06 12.391 105.42 10.969 105.779 9.587 105.729 8.246 105.272V105.272C6.2 104.575 4.677 103.29 3.678 101.417 2.679 99.544 2.619 97.321 3.496 94.746V94.746C4.012 93.235 5.044 91.854 6.595 90.605V90.605C7.084 90.181 7.362 89.869 7.431 89.667V89.667C7.553 89.308 7.324 89.012 6.743 88.779V88.779L5.915 88.455 6.189 87.652 13.451 90.128 13.194 90.883C10.963 90.376 9.14 90.528 7.726 91.338 6.309 92.155 5.317 93.395 4.75 95.057 4.181 96.726 4.196 98.168 4.793 99.383 5.389 100.605 6.269 101.415 7.433 101.812 8.592 102.207 9.741 102.247 10.881 101.933 12.021 101.619 13.066 100.935 14.016 99.881V99.881L17.96 95.608C19.289 94.184 20.707 93.252 22.214 92.81 23.719 92.374 25.173 92.395 26.577 92.874V92.874C28.56 93.55 30.008 94.932 30.919 97.021 31.828 99.116 31.83 101.492 30.924 104.149ZM21.702 62.762L18.731 67.659 40.424 80.819C40.726 81.002 40.985 80.914 41.202 80.556V80.556L43.2 77.263 43.882 77.677 37.351 88.443 36.669 88.029 38.672 84.728C38.886 84.375 38.842 84.107 38.54 83.924V83.924L16.848 70.764 13.882 75.652C13.482 76.311 13.545 76.836 14.071 77.225V77.225L18.16 80.488 17.633 81.358 15.85 80.276C13.626 78.927 11.928 78.053 10.755 77.652V77.652C11.472 76.983 12.438 75.647 13.653 73.645V73.645L19.816 63.485C21.027 61.489 21.764 60.018 22.026 59.073V59.073C22.923 59.928 24.484 61.031 26.707 62.38V62.38L28.49 63.461 27.962 64.331 23.18 62.212C22.591 61.925 22.099 62.108 21.702 62.762ZM63.453 54.333L64.033 54.881 57.793 61.49 57.212 60.942 59.192 58.846 50.837 55.225 44.138 62.32 48.233 70.453 50.212 68.357 50.793 68.905 46.196 73.773 45.616 73.225 46.739 72.035C47.023 71.735 47.064 71.39 46.865 71.001V71.001L34.281 45.699 35.315 44.604 61.297 55.715C61.698 55.892 62.042 55.828 62.329 55.523V55.523ZM49.629 54.702L37.808 49.579 43.574 61.115ZM63.75 22.428L59.066 25.722 73.663 46.476C73.865 46.764 74.138 46.788 74.481 46.547V46.547L77.631 44.331 78.09 44.984 67.791 52.228 67.332 51.575 70.49 49.354C70.828 49.116 70.895 48.853 70.692 48.565V48.565L56.095 27.812 51.419 31.101C50.788 31.545 50.635 32.05 50.961 32.618V32.618L53.399 37.246 52.567 37.832 51.367 36.126C49.871 33.999 48.666 32.517 47.752 31.68V31.68C48.677 31.354 50.098 30.517 52.013 29.17V29.17L61.732 22.334C63.642 20.991 64.907 19.939 65.526 19.178V19.178C66.005 20.321 66.993 21.956 68.489 24.084V24.084L69.688 25.789 68.856 26.375 65.324 22.516C64.9 22.017 64.376 21.987 63.75 22.428ZM93.595 37.49V37.49C91.82 38.293 89.825 38.611 87.61 38.445V38.445C86.882 38.416 86.409 38.451 86.191 38.55V38.55C85.791 38.731 85.704 39.113 85.931 39.696V39.696L86.15 40.277 85.377 40.626 82.327 33.88 83.054 33.551C84.234 35.514 85.7 36.691 87.454 37.081 89.201 37.474 90.971 37.265 92.765 36.453 94.553 35.645 95.695 34.545 96.19 33.153 96.678 31.764 96.626 30.412 96.031 29.097V29.097C95.08 26.994 93.148 25.951 90.236 25.968V25.968L84.461 26.006C82.713 26.015 81.223 25.627 79.992 24.84 78.758 24.048 77.849 23.006 77.265 21.715V21.715C76.374 19.745 76.27 17.756 76.953 15.746 77.636 13.736 79.217 12.171 81.696 11.05V11.05C83.15 10.393 84.864 10.202 86.835 10.478V10.478C87.479 10.545 87.897 10.535 88.091 10.447V10.447C88.437 10.291 88.496 9.921 88.269 9.338V9.338L87.939 8.512 88.712 8.163 91.873 15.154 91.146 15.483C89.99 13.509 88.633 12.283 87.074 11.805 85.509 11.33 83.926 11.454 82.326 12.178 80.72 12.904 79.678 13.901 79.199 15.168 78.715 16.438 78.727 17.634 79.234 18.755 79.738 19.871 80.494 20.737 81.503 21.354 82.512 21.97 83.726 22.265 85.144 22.237V22.237L90.96 22.192C92.907 22.187 94.557 22.584 95.91 23.381 97.257 24.18 98.236 25.256 98.848 26.608V26.608C99.711 28.517 99.692 30.518 98.792 32.612 97.885 34.708 96.153 36.334 93.595 37.49ZM108.619 30.178V30.178L103.491 5.513C103.419 5.167 103.178 5.038 102.768 5.123V5.123L100.736 5.545 100.573 4.764 109.424 2.924 109.586 3.705 107.545 4.13C107.141 4.214 106.975 4.428 107.047 4.773V4.773L112.175 29.439C112.258 29.843 112.502 30.003 112.906 29.919V29.919L114.948 29.494 115.11 30.276 106.26 32.116 106.097 31.334 108.129 30.912C108.54 30.827 108.703 30.582 108.619 30.178ZM121.042 21.114V21.114L122.869 24.902C123.679 26.609 124.563 27.363 125.52 27.164V27.164C126.009 27.062 126.352 26.801 126.549 26.379 126.755 25.963 126.805 25.501 126.699 24.993 126.594 24.485 126.45 24.022 126.268 23.605V23.605L127.072 23.305C127.28 23.717 127.438 24.184 127.546 24.704V24.704C127.763 25.746 127.622 26.635 127.123 27.371 126.623 28.107 125.882 28.577 124.899 28.781V28.781C122.469 29.286 120.556 28.07 119.157 25.134V25.134L117.33 21.346C116.45 19.565 115.498 18.398 114.472 17.843 113.451 17.281 112.147 17.165 110.558 17.495V17.495L110.361 16.548 118.007 1.955 115.838 2.405 115.676 1.624 121.586 0.395 121.748 1.177 120.576 1.421C120.113 1.517 119.748 1.803 119.481 2.28V2.28L112.208 16.072C114.441 15.635 116.244 15.892 117.617 16.843 118.998 17.799 120.14 19.223 121.042 21.114ZM154.799 27.492L154.777 28.29 145.691 28.05 145.712 27.252 148.595 27.328 145.719 18.689 135.964 18.431 132.636 26.907 135.519 26.983 135.498 27.781 128.805 27.604 128.826 26.806 130.462 26.85C130.874 26.86 131.159 26.662 131.316 26.253V26.253L141.771 0 143.277 0.04 152.331 26.808C152.467 27.224 152.744 27.438 153.163 27.449V27.449ZM145.303 17.44L141.234 5.216 136.486 17.207ZM178.607 34.23L177.233 33.881 167.175 5.79 161.425 28.398C161.323 28.798 161.472 29.048 161.872 29.15V29.15L163.893 29.664 163.696 30.438 156.995 28.733 157.192 27.96 159.203 28.471C159.609 28.574 159.863 28.426 159.965 28.027V28.027L166.175 3.611C166.262 3.269 166.103 3.047 165.696 2.943V2.943L163.685 2.432 163.882 1.658 170.196 3.264 178.829 27.245 183.684 8.157C183.786 7.757 183.637 7.507 183.237 7.405V7.405L181.216 6.891 181.413 6.117 188.114 7.822 187.917 8.596 185.896 8.082C185.497 7.98 185.253 8.1 185.166 8.442V8.442ZM193.049 41.485V41.485C191.312 40.602 189.816 39.244 188.561 37.412V37.412C188.128 36.826 187.804 36.478 187.591 36.37V36.37C187.199 36.171 186.847 36.343 186.534 36.885V36.885L186.218 37.418 185.462 37.034 188.818 30.435 189.53 30.797C188.736 32.945 188.735 34.825 189.527 36.437 190.313 38.045 191.584 39.296 193.339 40.189 195.088 41.078 196.66 41.281 198.056 40.797 199.445 40.309 200.467 39.422 201.121 38.136V38.136C202.168 36.078 201.773 33.919 199.939 31.657V31.657L196.297 27.175C195.197 25.817 194.568 24.411 194.411 22.959 194.258 21.5 194.502 20.139 195.144 18.876V18.876C196.124 16.949 197.612 15.624 199.607 14.9 201.602 14.176 203.812 14.43 206.237 15.663V15.663C207.66 16.387 208.88 17.605 209.898 19.316V19.316C210.248 19.86 210.518 20.18 210.708 20.277V20.277C211.046 20.448 211.371 20.263 211.684 19.721V19.721L212.122 18.948 212.878 19.332 209.4 26.171 208.689 25.809C209.506 23.673 209.614 21.847 209.012 20.332 208.403 18.814 207.316 17.656 205.751 16.86 204.18 16.061 202.75 15.872 201.463 16.291 200.169 16.708 199.243 17.464 198.685 18.561 198.13 19.652 197.928 20.784 198.077 21.957 198.227 23.13 198.756 24.261 199.665 25.351V25.351L203.338 29.86C204.559 31.377 205.282 32.912 205.506 34.466 205.724 36.018 205.498 37.455 204.825 38.777V38.777C203.875 40.644 202.302 41.882 200.106 42.488 197.903 43.092 195.551 42.758 193.049 41.485ZM215.903 56.553L205.303 48.081 205.801 47.458 207.422 48.753C207.749 49.015 208.042 48.985 208.299 48.663V48.663L224.027 28.982C224.247 28.706 224.194 28.438 223.866 28.176V28.176L222.245 26.881 222.743 26.257 229.805 31.9 229.307 32.524 227.678 31.222C227.356 30.965 227.084 30.974 226.864 31.249V31.249L211.024 51.07 217.922 56.583C218.52 57.06 219.046 57.063 219.499 56.591V56.591L223.261 52.955 224.056 53.591 222.754 55.22C221.13 57.252 220.044 58.823 219.496 59.935V59.935C218.925 59.138 217.727 58.01 215.903 56.553ZM224.937 63.239V63.239L243.412 46.111C243.671 45.872 243.658 45.598 243.373 45.291V45.291L241.962 43.769 242.547 43.226 248.693 49.856 248.107 50.398 246.69 48.869C246.409 48.567 246.14 48.535 245.881 48.775V48.775L227.406 65.902C227.103 66.183 227.092 66.474 227.373 66.776V66.776L228.79 68.306 228.205 68.848 222.059 62.219 222.645 61.676 224.056 63.198C224.341 63.506 224.634 63.519 224.937 63.239ZM239.18 85.016L231.113 72.755 231.78 72.316 232.92 74.05C233.151 74.4 233.438 74.462 233.783 74.235V74.235L254.829 60.387C255.123 60.193 255.155 59.922 254.925 59.571V59.571L253.784 57.838 254.451 57.399 262.173 69.135C263.46 71.091 264.474 72.39 265.215 73.033V73.033C264.058 73.476 262.576 74.292 260.77 75.48V75.48L259.028 76.626 258.469 75.776 261.885 72.728C262.397 72.319 262.441 71.793 262.017 71.148V71.148L256.9 63.372 246.781 70.03 251.679 77.473C251.876 77.773 252.164 77.835 252.541 77.658V77.658L254.962 76.328 255.401 76.995 248.733 81.382 248.294 80.715 250.474 79.018C250.785 78.741 250.843 78.453 250.645 78.153V78.153L245.748 70.71 235.629 77.368 241.091 85.67C241.512 86.309 242.011 86.474 242.588 86.166V86.166L247.29 83.872 247.849 84.722 246.107 85.869C243.935 87.298 242.416 88.457 241.551 89.344V89.344C241.254 88.409 240.464 86.966 239.18 85.016ZM274.716 99.764L272.675 94.413 248.968 103.455C248.639 103.58 248.549 103.839 248.698 104.23V104.23L250.07 107.829 249.325 108.113 244.838 96.348 245.583 96.064 246.959 99.672C247.106 100.057 247.345 100.187 247.674 100.061V100.061L271.381 91.02 269.344 85.678C269.069 84.957 268.616 84.685 267.986 84.861V84.861L262.9 86.085 262.537 85.134 264.486 84.391C266.916 83.464 268.649 82.661 269.685 81.981V81.981C269.773 82.958 270.234 84.541 271.069 86.729V86.729L275.303 97.832C276.135 100.013 276.844 101.498 277.429 102.286V102.286C276.203 102.468 274.375 103.023 271.945 103.95V103.95L269.997 104.693 269.634 103.742 274.243 101.269C274.831 100.98 274.989 100.479 274.716 99.764Z" fill="#000000" data-fill-palette-color="accent"></path><path d="M2.571 143.899C2.571 137.893 7.439 133.025 13.445 133.025 19.451 133.025 24.319 137.893 24.319 143.899 24.319 149.904 19.451 154.773 13.445 154.773 7.439 154.773 2.571 149.904 2.571 143.899ZM254.009 143.899C254.009 137.893 258.877 133.025 264.883 133.025 270.888 133.025 275.757 137.893 275.757 143.899 275.757 149.904 270.888 154.773 264.883 154.773 258.877 154.773 254.009 149.904 254.009 143.899Z" fill="#000000" data-fill-palette-color="accent"></path></g></svg></g><defs></defs></svg><rect width="280" height="280" fill="none" stroke="none" visibility="hidden"></rect></g></svg></g></svg>